# Blender v2.72 (sub 0) OBJ File: ''
# www.blender.org
mtllib Large_Oak_Green_01.mtl
o Mesh1_Large_Oak_Green_Model
v -0.291125 0.000000 0.266832
v -0.190645 0.971550 0.166342
v -0.190645 0.971550 -0.183278
v -0.291125 0.000000 -0.283758
v 0.259455 0.000000 0.266832
v 0.158975 0.971550 0.166342
v 0.259455 0.000000 -0.283758
v 0.158975 0.971550 -0.183278
v 0.573065 0.971550 -1.028468
v -0.604735 0.971550 -1.028468
v -0.604735 0.971550 1.011538
v -1.193635 0.971550 -0.008468
v -0.770835 1.591550 1.299232
v -1.525835 1.591550 -0.008468
v 0.573065 0.971550 1.011538
v 0.739165 1.591550 1.299232
v 1.161965 0.971550 -0.008468
v 0.739165 1.591550 -1.316168
v 1.494165 1.591550 -0.008468
v 0.565515 3.771550 -1.015398
v 1.146865 3.771550 -0.008468
v -0.770835 1.591550 -1.316168
v -0.597185 3.771550 -1.015398
v -1.178535 3.771550 -0.008468
v -0.015835 4.601550 -0.008468
v -0.597185 3.771550 0.998461
v 0.565515 3.771550 0.998461
vt -0.469275 0.057737
vt -0.514949 0.501706
vt -0.673868 0.501706
vt 0.561230 0.048277
vt 0.811497 0.048277
vt 0.765823 0.492246
vt 0.469275 -0.083484
vt 0.719542 -0.083484
vt 0.673868 0.360486
vt -0.561230 0.719542
vt -0.811497 0.719542
vt -0.811497 0.469275
vt -0.606904 0.369946
vt -0.765823 0.369946
vt -0.811497 -0.074024
vt -0.719542 0.057737
vt 0.606904 0.492246
vt 0.514949 0.360486
vt -0.561230 0.469275
vt -0.561230 -0.074024
vt -0.606904 0.673868
vt -0.954045 1.058050
vt -0.765823 0.673868
vt -0.418682 1.058050
vt -0.418682 0.130770
vt -0.151000 0.594408
vt -0.439273 0.220447
vt 0.096091 0.220447
vt 0.171591 0.531128
vt 0.418682 0.345545
vt 0.954045 0.345545
vt 1.029550 0.656225
vt -0.606904 0.514949
vt -0.954045 0.130770
vt -0.765823 0.514949
vt -1.221730 0.594408
vt 0.514773 1.281710
vt -0.171591 1.281710
vt -0.096091 0.971033
vt 0.514773 0.513544
vt 0.435841 1.513840
vt -0.092659 1.513840
vt -0.422114 1.554460
vt -0.950614 1.554460
vt -1.029550 0.554164
vt -1.122200 1.676320
vt -1.201140 0.676023
vt -0.514773 0.676023
vt -0.593705 0.966577
vt -0.857955 1.559720
vt -1.122200 0.966577
vt 0.092659 1.425250
vt -0.171591 2.018390
vt -0.435841 1.425250
vt 0.950614 1.195910
vt 0.686364 1.789060
vt 0.422114 1.195910
vt 1.122200 0.507906
vt 0.857955 1.101050
vt 0.593705 0.507906
vt 0.435841 0.049236
vt 0.171591 0.642379
vt -0.092659 0.049236
vt -0.686364 0.871714
vt -0.950614 0.278571
vt -0.422114 0.278571
vt 0.514773 0.594783
vt 1.201140 0.594783
vt 1.122200 1.595080
vt 0.514773 1.031520
vt 0.590273 0.720838
vt 1.125640 0.720838
vt 0.950614 1.716940
vt 0.422114 1.716940
vt 0.343182 0.716643
vt -0.435841 1.757560
vt -0.514773 0.757263
vt 0.171591 0.757263
vt -0.590273 0.470642
vt -0.514773 0.781323
vt -1.201140 0.781323
vt -0.954045 0.845935
vt -0.418682 0.845935
vt -0.343182 1.156620
vt -0.514773 0.531128
vt 0.343182 0.656225
vt 0.439273 0.971033
vt -0.171591 0.513544
vt -0.343182 0.554164
vt -0.593705 1.676320
vt 0.593705 1.595080
vt 1.201140 1.031520
vt 1.029550 0.716643
vt 0.092659 1.757560
vt -1.125640 0.470642
vt -1.029550 1.156620
vn -0.994700 0.102900 0.000000
vn 0.000000 0.102900 0.994700
vn 0.994700 0.102900 0.000000
vn 0.000000 -1.000000 -0.000000
vn 0.000000 0.102900 -0.994700
vn -0.785600 -0.420900 0.453500
vn 0.000000 -0.420900 0.907100
vn 0.785600 -0.420900 -0.453500
vn 0.857900 0.136700 -0.495300
vn 0.000000 0.136700 -0.990600
vn -0.857900 0.136700 -0.495300
vn -0.550800 0.771600 -0.318000
vn -0.550800 0.771600 0.318000
vn 0.000000 0.771600 0.636100
vn 0.550800 0.771600 0.318000
vn 0.550800 0.771600 -0.318000
vn 0.000000 0.771600 -0.636100
vn 0.857900 0.136700 0.495300
vn 0.785600 -0.420900 0.453500
vn 0.000000 0.136700 0.990600
vn -0.857900 0.136700 0.495300
vn -0.785600 -0.420900 -0.453500
vn 0.000000 -0.420900 -0.907100
vn 0.785600 -0.420900 -0.453600
vn -0.785600 -0.420900 -0.453600
usemtl Wood.001
s off
f 1/1/1 2/2/1 3/3/1
f 1/4/2 5/5/2 6/6/2
f 5/7/3 7/8/3 8/9/3
f 4/10/4 7/11/4 5/12/4
f 3/13/5 8/14/5 7/15/5
f 4/16/1 1/1/1 3/3/1
f 2/17/2 1/4/2 6/6/2
f 6/18/3 5/7/3 8/9/3
f 1/19/4 4/10/4 5/12/4
f 4/20/5 3/13/5 7/15/5
usemtl Green_leafs
f 3/21/4 9/22/4 8/23/4
f 3/21/4 10/24/4 9/22/4
f 11/25/4 10/24/4 3/21/4
f 10/24/4 11/25/4 12/26/4
f 12/27/6 11/28/6 13/29/6
f 11/30/7 15/31/7 16/32/7
f 11/25/4 2/33/4 15/34/4
f 2/33/4 11/25/4 3/21/4
f 15/34/4 2/33/4 6/35/4
f 15/34/4 6/35/4 9/22/4
f 8/23/4 9/22/4 6/35/4
f 15/34/4 9/22/4 17/36/4
f 18/37/8 19/38/8 17/39/8
f 18/40/9 20/41/9 21/42/9
f 23/43/10 20/44/10 18/45/10
f 23/46/11 22/47/11 14/48/11
f 24/49/12 25/50/12 23/51/12
f 26/52/13 25/53/13 24/54/13
f 27/55/14 25/56/14 26/57/14
f 21/58/15 25/59/15 27/60/15
f 20/61/16 25/62/16 21/63/16
f 25/64/17 20/65/17 23/66/17
f 16/67/18 19/68/18 21/69/18
f 16/70/19 15/71/19 17/72/19
f 27/73/20 26/74/20 13/75/20
f 24/76/21 14/77/21 13/78/21
f 12/79/22 14/80/22 22/81/22
f 9/82/23 10/83/23 22/84/23
f 14/85/6 12/27/6 13/29/6
f 13/86/7 11/30/7 16/32/7
f 9/87/24 18/37/24 17/39/24
f 19/88/9 18/40/9 21/42/9
f 22/89/10 23/43/10 18/45/10
f 24/90/11 23/46/11 14/48/11
f 27/91/18 16/67/18 21/69/18
f 19/92/19 16/70/19 17/72/19
f 16/93/20 27/73/20 13/75/20
f 26/94/21 24/76/21 13/78/21
f 10/95/25 12/79/25 22/81/25
f 18/96/23 9/82/23 22/84/23
