# Blender v2.72 (sub 0) OBJ File: ''
# www.blender.org
mtllib Oak_Green_01.mtl
o Mesh1_Oak_Green_Model.001
v 0.805160 1.533500 -0.471659
v 0.017074 1.533500 -0.926659
v 0.017074 2.817000 -0.926659
v 0.805160 2.817000 -0.471659
v 0.017074 1.270000 -0.526259
v 0.458401 1.270000 -0.271459
v -0.424253 1.270000 -0.271459
v -0.771010 1.533500 -0.471659
v -0.771010 1.533500 0.438341
v -0.424253 1.270000 0.238141
v -0.771010 2.817000 0.438341
v -0.771010 2.817000 -0.471659
v 0.017074 1.533500 0.893341
v 0.017074 2.817000 0.893341
v 0.017074 1.270000 0.492941
v 0.458401 1.270000 0.238141
v 0.805160 1.533500 0.438341
v 0.131329 1.270000 0.097597
v -0.097183 1.270000 0.097597
v -0.097183 1.270000 -0.130919
v 0.131329 1.270000 -0.130919
v 0.197004 0.000000 0.163271
v 0.197004 0.000000 -0.196589
v -0.162857 0.000000 0.163271
v -0.162857 0.000000 -0.196589
v 0.805160 2.817000 0.438341
v 0.474160 4.508500 -0.280559
v 0.474160 4.508500 0.247241
v 0.017074 4.508500 -0.544459
v -0.440015 4.508500 -0.280559
v -0.440015 4.508500 0.247241
v 0.017074 4.933500 -0.016659
v 0.017074 4.508500 0.511141
vt 0.331850 -0.022723
vt 0.495423 -0.022723
vt 0.465571 0.555321
vt -0.276433 0.495423
vt -0.440006 0.495423
vt -0.440006 0.331850
vt -0.331850 0.014276
vt -0.361702 0.592320
vt -0.465571 0.592320
vt 0.440006 0.017138
vt 0.410154 0.595182
vt 0.306285 0.595182
vt -0.306285 0.552459
vt -0.410154 0.552459
vt -0.440006 -0.025585
vt 0.361702 0.555321
vt -0.276433 0.331850
vt -0.495423 0.014276
vt 0.276433 0.017138
vt -0.276433 -0.025585
vt 0.103409 0.697045
vt 0.103409 1.280450
vt -0.310227 1.280450
vt -0.310227 1.134770
vt -0.219227 0.936811
vt 0.012409 0.936811
vt -0.310227 0.849557
vt -0.723864 0.849557
vt -0.632864 0.651596
vt -0.206818 0.421735
vt -0.620455 0.421735
vt -0.529455 0.223774
vt -0.206818 0.697045
vt -0.206818 1.280450
vt -0.620455 1.280450
vt 0.310227 0.697045
vt 0.310227 1.280450
vt -0.103409 1.280450
vt 0.310227 0.279128
vt -0.103409 0.279128
vt -0.012409 0.081167
vt 0.723864 0.564342
vt 0.310227 0.564342
vt 0.401227 0.366382
vt 0.206818 0.992165
vt 0.297818 0.794204
vt 0.529455 0.794204
vt -0.558823 0.297818
vt -0.410154 0.361702
vt -0.558823 0.529455
vt -0.358220 0.182000
vt -0.306285 0.361702
vt -0.157617 0.297818
vt -0.306285 0.465571
vt -0.358220 0.645273
vt -0.157617 0.529455
vt -0.410154 0.465571
vt 0.620455 0.697045
vt 0.620455 1.280450
vt 0.206818 1.280450
vt 0.620455 1.119040
vt 0.533591 1.902480
vt 0.293682 1.902480
vt 0.016546 1.868090
vt -0.223364 1.868090
vt -0.310227 1.084640
vt -0.397091 1.936880
vt -0.637000 1.936880
vt -0.723864 1.153430
vt -0.533591 2.040070
vt -0.620455 1.256620
vt -0.206818 1.256620
vt -0.293682 1.505630
vt -0.413636 1.789330
vt -0.533591 1.505630
vt 0.223364 1.636800
vt 0.103409 1.920500
vt -0.016546 1.636800
vt 0.517045 1.658160
vt 0.397091 1.374460
vt 0.637000 1.374460
vt 0.723864 1.222230
vt 0.637000 2.005670
vt 0.397091 2.005670
vt 0.223364 2.074460
vt -0.016546 2.074460
vt -0.103409 1.291020
vt 0.723864 0.697045
vt 0.723864 1.280450
vt 0.533591 0.980952
vt 0.413636 1.264650
vt 0.293682 0.980952
vt 0.016546 0.849782
vt -0.103409 1.133480
vt -0.223364 0.849782
vt -0.397091 1.112120
vt -0.517045 1.395820
vt -0.637000 1.112120
vt -0.310227 0.697045
vt -0.723864 1.280450
vt 0.103409 1.134770
vt -0.401227 0.651596
vt -0.297818 0.223774
vt -0.620455 0.697045
vt -0.103409 0.697045
vt 0.219227 0.081167
vt 0.632864 0.366382
vt 0.620455 0.992165
vt 0.206818 0.697045
vt 0.206818 1.119040
vt 0.103409 1.084640
vt -0.310227 1.153430
vt -0.293682 2.040070
vt 0.310227 1.222230
vt 0.310227 1.291020
vt -0.723864 0.697045
vn 0.998700 0.051600 0.000000
vn 0.000000 -1.000000 -0.000000
vn -0.998700 0.051600 0.000000
vn 0.000000 0.051600 0.998700
vn 0.000000 0.051600 -0.998700
vn 0.500000 0.000000 -0.866000
vn 0.302500 -0.796200 -0.524000
vn -0.302500 -0.796200 -0.524000
vn -0.605000 -0.796200 -0.000000
vn -1.000000 0.000000 0.000000
vn -0.500000 -0.000000 0.866000
vn -0.302500 -0.796200 0.524000
vn 0.302500 -0.796200 0.524000
vn 0.605000 -0.796200 0.000000
vn 1.000000 0.000000 0.000000
vn 0.981400 0.192000 0.000000
vn 0.490700 0.192000 -0.849900
vn -0.490700 0.192000 -0.849900
vn -0.981400 0.192000 0.000000
vn -0.680900 0.732300 0.000000
vn -0.340500 0.732300 0.589700
vn 0.340500 0.732300 0.589700
vn 0.490700 0.192000 0.849900
vn -0.490700 0.192000 0.849900
vn 0.500000 -0.000000 0.866000
vn 0.680900 0.732300 0.000000
vn 0.340500 0.732300 -0.589700
vn -0.340500 0.732300 -0.589700
vn -0.500000 0.000000 -0.866000
usemtl Wood.004
s off
f 22/1/1 23/2/1 21/3/1
f 25/4/2 23/5/2 22/6/2
f 24/7/3 19/8/3 20/9/3
f 22/10/4 18/11/4 19/12/4
f 20/13/5 21/14/5 23/15/5
f 18/16/1 22/1/1 21/3/1
f 24/17/2 25/4/2 22/6/2
f 25/18/3 24/7/3 20/9/3
f 24/19/4 22/10/4 19/12/4
f 25/20/5 20/13/5 23/15/5
usemtl Green_leafs.002
f 2/21/6 3/22/6 4/23/6
f 1/24/7 6/25/7 5/26/7
f 8/27/8 2/28/8 5/29/8
f 9/30/9 8/31/9 7/32/9
f 9/33/10 11/34/10 12/35/10
f 13/36/11 14/37/11 11/38/11
f 13/39/12 9/40/12 10/41/12
f 17/42/13 13/43/13 15/44/13
f 17/45/14 16/46/14 6/47/14
f 16/48/2 18/49/2 6/50/2
f 15/51/2 18/49/2 16/48/2
f 15/51/2 19/52/2 18/49/2
f 10/53/2 19/52/2 15/51/2
f 19/52/2 10/53/2 20/54/2
f 10/53/2 5/55/2 20/54/2
f 5/55/2 10/53/2 7/56/2
f 20/54/2 5/55/2 21/57/2
f 21/57/2 5/55/2 6/50/2
f 21/57/2 6/50/2 18/49/2
f 1/58/15 4/59/15 26/60/15
f 4/61/16 27/62/16 28/63/16
f 29/64/17 27/65/17 4/66/17
f 30/67/18 29/68/18 3/69/18
f 30/70/19 12/71/19 11/72/19
f 31/73/20 32/74/20 30/75/20
f 33/76/21 32/77/21 31/78/21
f 32/79/22 33/80/22 28/81/22
f 26/82/23 28/83/23 33/84/23
f 33/85/24 31/86/24 11/87/24
f 17/88/25 26/89/25 14/37/25
f 27/90/26 32/91/26 28/92/26
f 29/93/27 32/94/27 27/95/27
f 30/96/28 32/97/28 29/98/28
f 8/99/29 12/23/29 3/100/29
f 1/99/6 2/21/6 4/23/6
f 2/101/7 1/24/7 5/26/7
f 7/102/8 8/27/8 5/29/8
f 10/103/9 9/30/9 7/32/9
f 8/104/10 9/33/10 12/35/10
f 9/105/11 13/36/11 11/38/11
f 15/106/12 13/39/12 10/41/12
f 16/107/13 17/42/13 15/44/13
f 1/108/14 17/45/14 6/47/14
f 17/109/15 1/58/15 26/60/15
f 26/110/16 4/61/16 28/63/16
f 3/111/17 29/64/17 4/66/17
f 12/112/18 30/67/18 3/69/18
f 31/113/19 30/70/19 11/72/19
f 14/114/23 26/82/23 33/84/23
f 14/115/24 33/85/24 11/87/24
f 13/36/25 17/88/25 14/37/25
f 2/116/29 8/99/29 3/100/29
