# Blender v2.72 (sub 0) OBJ File: ''
# www.blender.org
mtllib Tall_Rock_1_01.mtl
o Mesh1_Tall_Rock_1_Model
v 0.342046 1.590000 0.209427
v 0.448116 0.740000 0.230549
v 0.448116 0.740000 -0.035701
v 0.601836 0.000000 0.319299
v -0.013046 0.740000 0.496799
v -0.013046 1.590000 0.414440
v -0.368138 1.590000 0.209427
v -0.474204 0.740000 0.230549
v -0.368138 1.590000 0.004415
v -0.474204 0.740000 -0.035701
v -0.089681 1.590000 -0.137009
v -0.112571 0.740000 -0.219368
v -0.474204 0.740000 -0.301951
v -0.013046 0.740000 -0.568201
v -0.013046 0.000000 -0.745701
v 0.448116 0.740000 -0.301951
v 0.601836 0.000000 -0.390701
v -0.627924 0.000000 0.319299
v -0.627924 0.000000 -0.390701
v 0.342046 1.590000 0.004415
v -0.013046 0.000000 0.674299
vt 18.302000 57.388100
vt 17.470501 23.664000
vt 27.952801 23.664000
vt 48.917301 -2.461780
vt 45.423199 27.294001
vt 24.458700 27.294001
vt 45.423199 28.525801
vt 42.222599 62.108002
vt 26.079901 62.108002
vt 15.849200 64.132202
vt -0.293488 64.132202
vt -3.494090 30.549999
vt -18.302000 63.383099
vt -26.373400 63.383099
vt -27.952801 29.659000
vt -18.053699 26.816999
vt -21.061701 60.443802
vt -33.357399 60.443802
vt -31.556999 25.716900
vt -8.328640 25.716900
vt -10.194500 59.298500
vt -24.458700 22.370501
vt -45.423199 22.370501
vt -48.917301 -7.385330
vt 3.494090 17.446899
vt -17.470501 17.446899
vt -20.964600 -12.308900
vt 17.470501 32.217602
vt -3.494090 32.217602
vt -6.988190 2.461780
vt 21.190701 31.941200
vt 10.227800 26.373400
vt 10.227800 18.302000
vt 20.289499 35.183701
vt 42.363602 27.952801
vt 42.363602 38.435001
vt 0.558980 0.161364
vt 0.558980 0.484091
vt 0.279490 0.645455
vt -27.952801 29.755800
vt -38.435001 29.755800
vt -41.929100 -0.000000
vt 27.952801 19.908701
vt 17.470501 19.908701
vt 13.976400 -9.847110
vt 26.373400 57.388100
vt 20.964600 -2.461780
vt 24.458700 28.525801
vt 17.470501 30.549999
vt -17.470501 29.659000
vt -34.022202 26.816999
vt -28.080299 59.298500
vt -20.964600 -7.385330
vt 6.988190 -12.308900
vt 20.964600 2.461780
vt 24.207800 10.230700
vt 38.187801 18.302000
vt 38.187801 26.373400
vt 6.051950 38.435001
vt 6.051950 27.952801
vt 24.207800 48.917301
vt 0.000000 0.484091
vt 0.000000 0.161364
vt -17.470501 29.755800
vt -13.976400 -0.000000
vt 0.279490 0.000000
vt 38.435001 19.908701
vt 41.929100 -9.847110
vn 0.992300 0.123800 0.000000
vn 0.489500 0.203400 0.847900
vn 0.498200 0.083600 0.863000
vn -0.498200 0.083600 0.863000
vn -0.992300 0.123800 0.000000
vn -0.450600 0.098100 -0.887300
vn 0.310200 0.083400 -0.947000
vn -0.489500 0.203400 -0.847900
vn 0.489500 0.203400 -0.847900
vn -0.489500 0.203400 0.847900
vn 0.000000 1.000000 0.000000
vn -0.979100 0.203400 0.000000
vn 0.979100 0.203400 0.000000
usemtl Stone
s off
f 1/1/1 2/2/1 3/3/1
f 4/4/2 2/5/2 5/6/2
f 2/7/3 1/8/3 6/9/3
f 6/10/4 7/11/4 8/12/4
f 7/13/5 9/14/5 10/15/5
f 10/16/6 9/17/6 11/18/6
f 3/19/7 12/20/7 11/21/7
f 13/22/8 14/23/8 15/24/8
f 14/25/9 16/26/9 17/27/9
f 5/28/10 8/29/10 18/30/10
f 11/31/11 9/32/11 7/33/11
f 12/34/11 3/35/11 16/36/11
f 4/37/11 17/38/11 15/39/11
f 10/40/12 13/41/12 19/42/12
f 3/43/13 2/44/13 4/45/13
f 20/46/1 1/1/1 3/3/1
f 21/47/2 4/4/2 5/6/2
f 5/48/3 2/7/3 6/9/3
f 5/49/4 6/10/4 8/12/4
f 8/50/5 7/13/5 10/15/5
f 12/51/6 10/16/6 11/18/6
f 20/52/7 3/19/7 11/21/7
f 19/53/8 13/22/8 15/24/8
f 15/54/9 14/25/9 17/27/9
f 21/55/10 5/28/10 18/30/10
f 6/56/11 1/57/11 11/31/11
f 11/31/11 1/57/11 20/58/11
f 6/56/11 11/31/11 7/33/11
f 13/59/11 10/60/11 12/34/11
f 13/59/11 12/34/11 14/61/11
f 15/39/11 19/62/11 18/63/11
f 8/64/12 10/40/12 18/65/12
f 12/34/11 16/36/11 14/61/11
f 4/37/11 15/39/11 21/66/11
f 16/67/13 3/43/13 17/68/13
f 15/39/11 18/63/11 21/66/11
f 10/40/12 19/42/12 18/65/12
f 3/43/13 4/45/13 17/68/13
