# Blender v2.72 (sub 0) OBJ File: ''
# www.blender.org
mtllib Tall_Rock_3_01.mtl
o Mesh1_Tall_Rock_3_Model
v 0.807424 0.000000 0.405420
v 0.648074 0.560000 0.313420
v 0.010677 0.560000 0.681420
v 0.807424 0.000000 -0.514580
v 0.648074 0.560000 -0.422580
v -0.786066 0.000000 -0.514580
v -0.626717 0.560000 -0.422580
v 0.010677 0.560000 -0.790580
v -0.626717 0.560000 0.103486
v -0.524734 0.920000 0.092916
v -0.030574 0.920000 0.092916
v -0.626717 0.560000 0.313420
v -0.364111 1.970000 0.113083
v -0.524734 0.920000 0.269260
v 0.546084 0.920000 -0.030996
v 0.385464 1.970000 0.026345
v 0.385464 1.970000 0.236524
v 0.278384 0.920000 -0.503540
v 0.546084 0.920000 -0.348980
v -0.104782 0.920000 -0.311940
v 0.329374 0.560000 -0.606580
v -0.044171 1.970000 -0.028616
v 0.180995 1.970000 -0.132629
v 0.253984 0.920000 -0.258100
v -0.018198 1.970000 0.113083
v -0.067678 0.920000 -0.109512
v 0.546084 0.920000 0.269260
v 0.010677 0.920000 0.578380
v 0.010677 1.970000 0.452908
v -0.364111 1.970000 0.236524
v -0.786066 0.000000 0.405420
v -0.126775 0.560000 -0.378480
v 0.010677 0.000000 0.865420
v 0.010677 0.000000 -0.974580
v -0.038431 0.560000 0.103486
vt 0.731818 -0.049559
vt 0.690000 0.215091
vt 0.355455 0.215091
vt 0.627273 -0.198235
vt 0.585455 0.066416
vt 0.250909 0.066416
vt -0.313636 -0.148676
vt -0.355455 0.115974
vt -0.690000 0.115974
vt -0.072431 0.264601
vt -0.118787 0.428308
vt -0.343406 0.428308
vt -0.351138 0.434726
vt -0.346333 0.264650
vt -0.250909 0.264650
vt -0.341971 0.914160
vt -0.351138 0.431336
vt -0.270982 0.431336
vt 0.407462 0.321808
vt 0.381398 0.804633
vt 0.285862 0.804633
vt -0.107891 0.161345
vt -0.248400 0.161345
vt -0.271818 -0.010401
vt -0.516326 0.346283
vt -0.711054 0.346283
vt -0.752732 0.179638
vt -0.476559 0.874659
vt -0.589299 0.874659
vt -0.643336 0.395887
vt -0.273440 0.898717
vt -0.338921 0.898717
vt -0.377016 0.421429
vt -0.118787 0.411362
vt -0.191798 0.888722
vt -0.349031 0.888722
vt -0.068572 0.801928
vt -0.186299 0.801928
vt -0.227940 0.320196
vt 0.690000 0.220929
vt 0.659891 0.389517
vt 0.378873 0.389517
vt 0.659891 0.408952
vt 0.604102 0.888773
vt 0.407389 0.888773
vt 0.219884 0.926053
vt 0.023171 0.926053
vt -0.032618 0.446231
vt 0.248400 0.476650
vt -0.032618 0.476650
vt -0.062727 0.308061
vt 0.271818 0.314209
vt -0.062727 0.314209
vt -0.104545 0.049559
vt 0.299678 0.565411
vt 0.507019 0.669091
vt 0.362156 0.752727
vt -0.377016 0.428762
vt -0.470561 0.428762
vt -0.502115 0.265067
vt 0.000000 0.627273
vt 0.000000 0.209091
vt 0.362156 0.000000
vt 0.309674 0.535163
vt 0.326540 0.443151
vt 0.472752 0.510692
vt -0.585455 0.264650
vt -0.627273 0.000000
vt 0.349031 0.341971
vt 0.191798 0.341971
vt 0.191798 0.285862
vt 0.407462 0.237306
vt 0.270982 0.237306
vt 0.250909 0.067231
vt -0.104545 0.016857
vt -0.271818 0.016857
vt -0.313636 -0.247793
vt 0.313636 -0.049559
vt 0.209091 -0.198235
vt -0.731818 -0.148676
vt -0.339834 0.264601
vt -0.270982 0.434726
vt -0.285862 0.914160
vt 0.270982 0.321808
vt -0.104545 -0.010401
vt -0.520914 0.179638
vt -0.482279 0.395887
vt -0.283470 0.421429
vt -0.343406 0.411362
vt -0.059758 0.320196
vt 0.355455 0.220929
vt 0.378873 0.408952
vt 0.248400 0.446231
vt 0.271818 0.308061
vt 0.313636 0.049559
vt 0.072431 0.346333
vt 0.339834 0.346333
vt 0.072431 0.585455
vt -0.283470 0.428762
vt -0.279388 0.265067
vt 0.362156 0.836364
vt 0.724312 0.209091
vt 0.724312 0.627273
vt 0.605525 0.407462
vt 0.605525 0.552000
vt -0.209091 0.000000
vt 0.483841 0.622255
vt 0.439573 0.453659
vt 0.532514 0.381398
vt 0.337225 0.406380
vt 0.532514 0.285862
vt 0.362156 0.187506
vt 0.552000 0.237306
vt 0.585455 0.067231
vt 0.062727 0.016857
vt 0.104545 -0.247793
vn 0.480900 0.273700 0.833000
vn 0.961800 0.273700 0.000000
vn -0.480900 0.273700 -0.833000
vn 0.000000 -0.029300 -0.999600
vn -0.962100 0.272600 0.000000
vn -0.988500 0.151200 0.000000
vn 0.988500 0.151200 0.000000
vn 0.476400 0.303700 -0.825100
vn -0.439200 0.189200 -0.878300
vn -0.418000 0.079100 -0.905000
vn -0.983600 0.008100 0.180300
vn 0.000000 0.019200 -0.999800
vn 0.608100 0.135700 -0.782200
vn 0.485300 0.240600 0.840600
vn 0.497300 0.102900 0.861400
vn -0.497300 0.102900 0.861400
vn -0.485300 0.240600 0.840600
vn -0.480900 0.273700 0.833000
vn 0.000000 1.000000 0.000000
vn -0.983300 0.026800 0.180200
vn -0.961800 0.273700 0.000000
vn 0.962100 0.272600 0.000000
vn 0.480900 0.273700 -0.833000
vn 0.476400 0.303600 -0.825100
usemtl Stone.002
s off
f 1/1/1 2/2/1 3/3/1
f 4/4/2 5/5/2 2/6/2
f 6/7/3 7/8/3 8/9/3
f 9/10/4 10/11/4 11/12/4
f 10/13/5 9/14/5 12/15/5
f 13/16/6 10/17/6 14/18/6
f 15/19/7 16/20/7 17/21/7
f 18/22/8 19/23/8 5/24/8
f 20/25/9 18/26/9 21/27/9
f 22/28/10 23/29/10 24/30/10
f 25/31/11 22/32/11 26/33/11
f 10/34/12 13/35/12 25/36/12
f 23/37/13 16/38/13 15/39/13
f 2/40/14 27/41/14 28/42/14
f 27/43/15 17/44/15 29/45/15
f 29/46/16 30/47/16 14/48/16
f 28/49/17 14/50/17 12/51/17
f 3/52/18 12/53/18 31/54/18
f 32/55/19 21/56/19 8/57/19
f 26/58/20 20/59/20 32/60/20
f 6/61/19 31/62/19 33/63/19
f 20/64/19 26/65/19 24/66/19
f 9/14/21 7/67/21 6/68/21
f 25/69/19 13/70/19 30/71/19
f 15/72/22 27/73/22 2/74/22
f 21/75/23 5/76/23 4/77/23
f 33/78/1 1/1/1 3/3/1
f 1/79/2 4/4/2 2/6/2
f 34/80/3 6/7/3 8/9/3
f 35/81/4 9/10/4 11/12/4
f 14/82/5 10/13/5 12/15/5
f 30/83/6 13/16/6 14/18/6
f 27/84/7 15/19/7 17/21/7
f 21/85/24 18/22/24 5/24/24
f 32/86/9 20/25/9 21/27/9
f 26/87/10 22/28/10 24/30/10
f 11/88/11 25/31/11 26/33/11
f 11/89/12 10/34/12 25/36/12
f 24/90/13 23/37/13 15/39/13
f 3/91/14 2/40/14 28/42/14
f 28/92/15 27/43/15 29/45/15
f 28/93/16 29/46/16 14/48/16
f 3/94/17 28/49/17 12/51/17
f 33/95/18 3/52/18 31/54/18
f 9/96/19 35/97/19 32/55/19
f 9/96/19 32/55/19 7/98/19
f 11/99/20 26/58/20 35/100/20
f 6/61/19 33/63/19 34/101/19
f 32/55/19 8/57/19 7/98/19
f 33/63/19 1/102/19 4/103/19
f 26/58/20 32/60/20 35/100/20
f 24/66/19 15/104/19 19/105/19
f 31/106/21 12/15/21 9/14/21
f 33/63/19 4/103/19 34/101/19
f 20/64/19 24/66/19 18/107/19
f 31/106/21 9/14/21 6/68/21
f 24/66/19 19/105/19 18/107/19
f 23/108/19 25/69/19 16/109/19
f 23/108/19 22/110/19 25/69/19
f 17/111/19 25/69/19 29/112/19
f 19/113/22 15/72/22 5/114/22
f 8/115/23 21/75/23 34/116/23
f 25/69/19 17/111/19 16/109/19
f 25/69/19 30/71/19 29/112/19
f 15/72/22 2/74/22 5/114/22
f 21/75/23 4/77/23 34/116/23
