# Blender v2.72 (sub 0) OBJ File: ''
# www.blender.org
mtllib Tall_Rock_2_01.mtl
o Mesh1_Tall_Rock_2_Model
v 0.524807 1.060000 0.293341
v 0.018354 1.060000 0.585741
v 0.018354 0.000000 0.680941
v 0.018354 0.000000 -0.679060
v 0.018354 1.060000 -0.583859
v 0.524807 1.060000 -0.291459
v -0.488097 1.060000 -0.291459
v -0.488097 1.060000 0.000941
v -0.417194 1.480000 0.030156
v -0.023658 1.480000 -0.113848
v -0.417194 1.480000 0.281620
v -0.177532 1.480000 0.419989
v 0.453907 1.480000 0.281620
v 0.018354 1.480000 0.533084
v 0.524807 1.060000 0.000941
v 0.453907 1.480000 0.030156
v 0.003855 2.170000 -0.058858
v 0.400231 2.170000 0.060664
v 0.038726 2.170000 0.478095
v -0.123860 2.170000 0.384226
v 0.400231 2.170000 0.269380
v -0.488097 1.060000 0.293341
v -0.570543 0.000000 0.340941
v -0.570543 0.000000 -0.339059
v -0.030498 1.060000 -0.166505
v 0.607247 0.000000 0.340941
v 0.607247 0.000000 -0.339059
vt 0.519273 0.472895
vt 0.253455 0.472895
vt 0.231818 -0.010379
vt 0.077273 -0.051893
vt 0.055636 0.431380
vt -0.210182 0.431380
vt -0.253455 0.452138
vt -0.519273 0.452138
vt -0.540909 -0.031136
vt -0.141409 0.444240
vt -0.167111 0.636596
vt -0.357591 0.636596
vt -0.181510 0.674944
vt -0.295811 0.674944
vt -0.309091 0.481334
vt 0.069704 0.181510
vt 0.178641 0.118615
vt 0.248584 0.361268
vt 0.519273 0.468601
vt 0.494026 0.660632
vt 0.265422 0.660632
vt 0.309091 0.392217
vt 0.295811 0.585827
vt 0.181510 0.585827
vt -0.133701 0.620445
vt -0.360429 0.620445
vt -0.387451 0.428270
vt -0.152891 0.958611
vt -0.341075 0.958611
vt -0.360429 0.644317
vt -0.395430 0.994078
vt -0.415984 0.679871
vt -0.163452 0.679871
vt 0.193736 1.001150
vt 0.108400 1.001150
vt 0.095400 0.686412
vt 0.475680 0.981739
vt 0.285939 0.981739
vt 0.265422 0.667642
vt 0.295811 0.634589
vt 0.281944 0.949173
vt 0.187073 0.949173
vt 0.210182 0.493652
vt -0.055636 0.493652
vt -0.077273 0.010379
vt -0.309091 0.483273
vt -0.442000 0.483273
vt -0.463636 0.000000
vt 0.095400 0.689526
vt -0.030389 0.689526
vt -0.055636 0.497495
vt 0.245475 0.385203
vt 0.497886 0.309091
vt 0.497886 0.442000
vt 0.441261 0.187073
vt 0.441261 0.281944
vt 0.261090 0.336272
vt 0.309091 0.441759
vt 0.176182 0.441759
vt 0.154545 -0.041514
vt -0.267681 0.618182
vt -0.535361 0.463636
vt -0.000000 0.463636
vt 0.540909 -0.010379
vt -0.231818 -0.051893
vt -0.231818 -0.031136
vt -0.362897 0.444240
vt -0.176182 0.481334
vt 0.069704 0.295811
vt 0.253455 0.468601
vt 0.176182 0.392217
vt -0.123815 0.428270
vt -0.133701 0.644317
vt -0.185829 0.994078
vt 0.198214 0.686412
vt 0.494026 0.667642
vt 0.181510 0.634589
vt 0.231818 0.010379
vt -0.154545 -0.000000
vt -0.176182 0.483273
vt 0.037475 0.442000
vt 0.037475 0.309091
vt 0.198214 0.689526
vt 0.210182 0.497495
vt 0.203038 0.134871
vt 0.276940 0.092203
vt 0.267681 0.574909
vt 0.463636 -0.041514
vt 0.442000 0.441759
vt -0.535361 0.154545
vt 0.000000 0.154545
vt -0.267681 0.000000
vn 0.498500 0.077500 0.863400
vn 0.498500 0.077500 -0.863400
vn -0.498500 0.077500 -0.863400
vn -0.341100 0.122400 -0.932000
vn -0.986000 0.166500 0.000000
vn 0.000000 1.000000 0.000000
vn 0.497100 0.107900 0.861000
vn 0.986000 0.166500 0.000000
vn 0.286800 0.114600 -0.951100
vn 0.288100 0.064700 -0.955400
vn -0.959100 0.060300 -0.276500
vn -0.498300 0.083500 0.863000
vn 0.499300 0.054200 0.864800
vn 0.997000 0.077600 0.000000
vn -0.498500 0.077500 0.863400
vn -0.997000 0.077500 0.000000
vn -0.497100 0.107900 0.861000
vn 0.997000 0.077500 0.000000
vn 0.000000 -1.000000 -0.000000
usemtl Stone.001
s off
f 1/1/1 2/2/1 3/3/1
f 4/4/2 5/5/2 6/6/2
f 7/7/3 5/8/3 4/9/3
f 8/10/4 9/11/4 10/12/4
f 11/13/5 9/14/5 8/15/5
f 11/16/6 12/17/6 10/18/6
f 1/19/7 13/20/7 14/21/7
f 15/22/8 16/23/8 13/24/8
f 10/25/9 16/26/9 15/27/9
f 17/28/10 18/29/10 16/30/10
f 17/31/11 10/32/11 12/33/11
f 19/34/12 20/35/12 12/36/12
f 21/37/13 19/38/13 14/39/13
f 16/40/14 18/41/14 21/42/14
f 2/43/15 22/44/15 23/45/15
f 8/46/16 7/47/16 24/48/16
f 12/49/17 11/50/17 22/51/17
f 25/52/6 15/53/6 6/54/6
f 21/55/6 18/56/6 17/57/6
f 15/58/18 1/59/18 26/60/18
f 4/61/19 27/62/19 24/63/19
f 26/64/1 1/1/1 3/3/1
f 27/65/2 4/4/2 6/6/2
f 24/66/3 7/7/3 4/9/3
f 25/67/4 8/10/4 10/12/4
f 22/68/5 11/13/5 8/15/5
f 9/69/6 11/16/6 10/18/6
f 2/70/7 1/19/7 14/21/7
f 1/71/8 15/22/8 13/24/8
f 25/72/9 10/25/9 15/27/9
f 10/73/10 17/28/10 16/30/10
f 20/74/11 17/31/11 12/33/11
f 14/75/12 19/34/12 12/36/12
f 13/76/13 21/37/13 14/39/13
f 13/77/14 16/40/14 21/42/14
f 3/78/15 2/43/15 23/45/15
f 23/79/16 22/80/16 8/46/16
f 23/79/16 8/46/16 24/48/16
f 7/81/6 8/82/6 25/52/6
f 14/83/17 12/49/17 2/84/17
f 17/57/6 20/85/6 19/86/6
f 12/49/17 22/51/17 2/84/17
f 7/81/6 25/52/6 5/87/6
f 27/88/18 6/89/18 15/58/18
f 25/52/6 6/54/6 5/87/6
f 19/86/6 21/55/6 17/57/6
f 27/88/18 15/58/18 26/60/18
f 26/90/19 23/91/19 27/62/19
f 26/90/19 3/92/19 23/91/19
f 27/62/19 23/91/19 24/63/19
