# Alias OBJ Model File
# Exported from SketchUp, (c) 2000-2012 Trimble Navigation Limited
# File units = meters

mtllib Oak_Fall_01.mtl

g Mesh1 Oak_Fall Model

usemtl Fall_Leafs
v 1.57617 1.5335 -1.365
vt -0.310227 0.697045
vn 0.5 0 -0.866025
v 0.788083 1.5335 -1.82
vt 0.103409 0.697045
v 0.788083 2.817 -1.82
vt 0.103409 1.28045
vn 0.497668 0.0964695 -0.861986
v 1.57617 2.817 -1.365
vt -0.310227 1.28045
f 1/1/1 2/2/1 3/3/2 4/4/2

v 0.788083 1.27 -1.4196
vt 0.0124091 0.936811
vn 0.302516 -0.796201 -0.523973
vt 0.103409 1.13477
vt -0.310227 1.13477
v 1.22941 1.27 -1.1648
vt -0.219227 0.936811
f 5/5/3 2/6/3 1/7/3 6/8/3

v 0.346757 1.27 -1.1648
vt -0.401227 0.651596
vn -0.302516 -0.796201 -0.523973
v 1.80478e-015 1.5335 -1.365
vt -0.310227 0.849557
vt -0.723864 0.849557
vt -0.632864 0.651596
f 7/9/4 8/10/4 2/11/4 5/12/4

v 0 1.5335 -0.455
vt -0.206818 0.421735
vn -0.605032 -0.796201 -3.68114e-016
vt -0.620455 0.421735
vt -0.529455 0.223774
v 0.346757 1.27 -0.6552
vt -0.297818 0.223774
f 9/13/5 8/14/5 7/15/5 10/16/5

vt -0.620455 0.697045
vn -1 0 -7.93309e-016
vt -0.206818 0.697045
v 0 2.817 -0.455
vt -0.206818 1.28045
vn -0.995336 0.0964695 -6.93437e-016
v 1.80478e-015 2.817 -1.365
vt -0.620455 1.28045
f 8/17/6 9/18/6 11/19/7 12/20/7

vt -0.103409 0.697045
vn -0.5 0 0.866025
v 0.788083 1.5335 -0
vt 0.310227 0.697045
v 0.788083 2.817 -0
vt 0.310227 1.28045
vn -0.497668 0.0964695 0.861986
vt -0.103409 1.28045
f 9/21/8 13/22/8 14/23/9 11/24/9

v 0.788083 1.27 -0.4004
vt 0.219227 0.0811668
vn -0.302516 -0.796201 0.523973
vt 0.310227 0.279128
vt -0.103409 0.279128
vt -0.0124091 0.0811668
f 15/25/10 13/26/10 9/27/10 10/28/10

v 1.22941 1.27 -0.6552
vt 0.632864 0.366382
vn 0.302516 -0.796201 0.523973
v 1.57617 1.5335 -0.455
vt 0.723864 0.564342
vt 0.310227 0.564342
vt 0.401227 0.366382
f 16/29/11 17/30/11 13/31/11 15/32/11

vt 0.297818 0.794204
vn 0.605032 -0.796201 4.38273e-018
vt 0.529455 0.794204
vt 0.620455 0.992165
vt 0.206818 0.992165
f 16/33/12 6/34/12 1/35/12 17/36/12

vt -0.558823 0.297818
vn 0 -1 -0
v 0.902339 1.27 -0.795744
vt -0.410154 0.361702
vt -0.558823 0.529455
f 16/37/13 18/38/13 6/39/13

vt -0.35822 0.182
f 15/40/13 18/38/13 16/37/13

v 0.673827 1.27 -0.795744
vt -0.306285 0.361702
f 15/40/13 19/41/13 18/38/13

vt -0.157617 0.297818
f 10/42/13 19/41/13 15/40/13

v 0.673827 1.27 -1.02426
vt -0.306285 0.465571
f 19/41/13 10/42/13 20/43/13

vt -0.35822 0.645273
f 10/42/13 5/44/13 20/43/13

vt -0.157617 0.529455
f 5/44/13 10/42/13 7/45/13

v 0.902339 1.27 -1.02426
vt -0.410154 0.465571
f 20/43/13 5/44/13 21/46/13

f 21/46/13 5/44/13 6/39/13

f 21/46/13 6/39/13 18/38/13

usemtl Wood
v 0.968014 0 -0.73007
vt 0.33185 -0.0227234
vn 0.998666 0.0516433 -0
v 0.968014 0 -1.08993
vt 0.495423 -0.0227234
vt 0.465571 0.555321
vt 0.361702 0.555321
f 22/47/14 23/48/14 21/49/14 18/50/14

v 0.608153 0 -0.73007
vt -0.276433 0.33185
v 0.608153 0 -1.08993
vt -0.276433 0.495423
vt -0.440006 0.495423
vt -0.440006 0.33185
f 24/51/13 25/52/13 23/53/13 22/54/13

vt -0.33185 0.0142759
vn -0.998666 0.0516433 -0
vt -0.361702 0.59232
vt -0.465571 0.59232
vt -0.495423 0.0142759
f 24/55/15 19/56/15 20/57/15 25/58/15

vt 0.440006 0.0171378
vn -1.52886e-017 0.0516433 0.998666
vt 0.410154 0.595182
vt 0.306285 0.595182
vt 0.276433 0.0171378
f 22/59/16 18/60/16 19/61/16 24/62/16

vt -0.276433 -0.0255853
vn -1.52886e-017 0.0516433 -0.998666
vt -0.306285 0.552459
vt -0.410154 0.552459
vt -0.440006 -0.0255853
f 25/63/17 20/64/17 21/65/17 23/66/17

usemtl Fall_Leafs
vt 0.206818 0.697045
vn 1 0 -0
vt 0.620455 0.697045
vt 0.620455 1.28045
vn 0.995336 0.0964695 3.71398e-018
v 1.57617 2.817 -0.455
vt 0.206818 1.28045
f 17/67/18 1/68/18 4/69/19 26/70/19

vt 0.206818 1.11904
vt 0.620455 1.11904
v 1.24517 4.5085 -1.1739
vt 0.533591 1.90248
vn 0.981387 0.192039 7.39332e-018
v 1.24517 4.5085 -0.6461
vt 0.293682 1.90248
f 26/71/19 4/72/19 27/73/20 28/74/20

vt 0.103409 1.08464
v 0.788083 4.5085 -1.4378
vt 0.0165455 1.86809
vn 0.490694 0.192039 -0.849906
vt -0.223364 1.86809
vt -0.310227 1.08464
f 3/75/2 29/76/21 27/77/21 4/78/2

vt -0.310227 1.15343
vn -0.497668 0.0964695 -0.861986
v 0.330995 4.5085 -1.1739
vt -0.397091 1.93688
vn -0.490694 0.192039 -0.849906
vt -0.637 1.93688
vt -0.723864 1.15343
f 12/79/22 30/80/23 29/81/23 3/82/22

v 0.330995 4.5085 -0.6461
vt -0.293682 2.04007
vn -0.981387 0.192039 -5.87097e-016
vt -0.533591 2.04007
vt -0.620455 1.25662
vt -0.206818 1.25662
f 31/83/24 30/84/24 12/85/7 11/86/7

vt -0.293682 1.50563
vn -0.680934 0.732345 -5.13467e-017
v 0.788083 4.9335 -0.91
vt -0.413636 1.78933
vt -0.533591 1.50563
f 31/87/25 32/88/25 30/89/25

v 0.788083 4.5085 -0.3822
vt 0.223364 1.6368
vn -0.340467 0.732345 0.589706
vt 0.103409 1.9205
vt -0.0165455 1.6368
f 33/90/26 32/91/26 31/92/26

vt 0.517045 1.65816
vn 0.340467 0.732345 0.589706
vt 0.397091 1.37446
vt 0.637 1.37446
f 32/93/27 33/94/27 28/95/27

vt 0.723864 1.22223
vn 0.497668 0.0964695 0.861986
vt 0.637 2.00567
vn 0.490694 0.192039 0.849906
vt 0.397091 2.00567
vt 0.310227 1.22223
f 26/96/28 28/97/29 33/98/29 14/99/28

vt 0.310227 1.29102
vt 0.223364 2.07446
vn -0.490694 0.192039 0.849906
vt -0.0165455 2.07446
vt -0.103409 1.29102
f 14/100/9 33/101/30 31/102/30 11/103/9

vn 0.5 0 0.866025
vt 0.723864 0.697045
vt 0.723864 1.28045
f 13/22/31 17/104/31 26/105/28 14/23/28

vt 0.533591 0.980952
vn 0.680934 0.732345 -5.13467e-017
vt 0.413636 1.26465
vt 0.293682 0.980952
f 27/106/32 32/107/32 28/108/32

vt 0.0165455 0.849782
vn 0.340467 0.732345 -0.589706
vt -0.103409 1.13348
vt -0.223364 0.849782
f 29/109/33 32/110/33 27/111/33

vt -0.397091 1.11212
vn -0.340467 0.732345 -0.589706
vt -0.517045 1.39582
vt -0.637 1.11212
f 30/112/34 32/113/34 29/114/34

vt -0.723864 0.697045
vn -0.5 0 -0.866025
vt -0.723864 1.28045
f 2/115/35 8/1/35 12/4/22 3/116/22
