<?xml version="1.0" encoding="UTF-8" standalone="no"?>
<!-- Created with Inkscape (http://www.inkscape.org/) -->

<svg
   xmlns:dc="http://purl.org/dc/elements/1.1/"
   xmlns:cc="http://creativecommons.org/ns#"
   xmlns:rdf="http://www.w3.org/1999/02/22-rdf-syntax-ns#"
   xmlns:svg="http://www.w3.org/2000/svg"
   xmlns="http://www.w3.org/2000/svg"
   xmlns:sodipodi="http://sodipodi.sourceforge.net/DTD/sodipodi-0.dtd"
   xmlns:inkscape="http://www.inkscape.org/namespaces/inkscape"
   width="512"
   height="512"
   id="svg2"
   version="1.1"
   inkscape:version="0.48.5 r10040"
   sodipodi:docname="icon.svg">
  <defs
     id="defs4" />
  <sodipodi:namedview
     id="base"
     pagecolor="#ffffff"
     bordercolor="#666666"
     borderopacity="1.0"
     inkscape:pageopacity="0.0"
     inkscape:pageshadow="2"
     inkscape:zoom="0.7"
     inkscape:cx="242.71246"
     inkscape:cy="187.76324"
     inkscape:document-units="px"
     inkscape:current-layer="layer1"
     showgrid="false"
     inkscape:window-width="1196"
     inkscape:window-height="1109"
     inkscape:window-x="1362"
     inkscape:window-y="304"
     inkscape:window-maximized="0" />
  <metadata
     id="metadata7">
    <rdf:RDF>
      <cc:Work
         rdf:about="">
        <dc:format>image/svg+xml</dc:format>
        <dc:type
           rdf:resource="http://purl.org/dc/dcmitype/StillImage" />
        <dc:title />
      </cc:Work>
    </rdf:RDF>
  </metadata>
  <g
     inkscape:label="Layer 1"
     inkscape:groupmode="layer"
     id="layer1"
     transform="translate(0,-540.36218)">
    <path
       sodipodi:type="arc"
       style="fill:#000000;fill-opacity:1;stroke:none"
       id="path2986"
       sodipodi:cx="270.72089"
       sodipodi:cy="251.38065"
       sodipodi:rx="241.42645"
       sodipodi:ry="241.42645"
       d="m 512.14734,251.38065 c 0,133.33614 -108.09031,241.42645 -241.42645,241.42645 -133.33615,0 -241.426456,-108.09031 -241.426456,-241.42645 0,-133.33615 108.090306,-241.4264569 241.426456,-241.4264569 133.33614,0 241.42645,108.0903069 241.42645,241.4264569 z"
       transform="matrix(1.0603643,0,0,1.0603643,-31.062773,529.80711)" />
    <g
       style="font-size:394.38067627px;font-style:normal;font-weight:normal;line-height:125%;letter-spacing:0px;word-spacing:0px;fill:#ffffff;fill-opacity:1;stroke:none;font-family:Sans"
       id="text2987">
      <path
         d="m 272.06894,762.2731 c 11.68234,1.7e-4 20.54049,-2.56741 26.57448,-7.70275 6.03364,-5.13497 9.05054,-12.70934 9.05073,-22.7231 -1.9e-4,-9.88498 -3.01709,-17.39515 -9.05073,-22.53054 -6.03399,-5.26331 -14.89214,-7.89508 -26.57448,-7.89532 l -41.01713,0 0,60.85171 41.01713,0 m 2.5034,125.74735 c 14.89181,5e-5 26.06078,-3.14523 33.50695,-9.43586 7.57417,-6.29051 11.36135,-15.79056 11.36155,-28.50017 -2e-4,-12.45267 -3.72319,-21.76015 -11.16898,-27.92246 -7.44617,-6.29045 -18.67933,-9.43574 -33.69952,-9.43586 l -43.52053,0 0,75.29435 43.52053,0 m 68.93959,-103.40938 c 15.91877,4.62179 28.24315,13.159 36.97319,25.61163 8.72951,12.45289 13.09439,27.72999 13.09467,45.83135 -2.8e-4,27.72995 -9.37194,48.39897 -28.11503,62.00712 -18.74358,13.60819 -47.24372,20.41228 -85.5005,20.41228 l -123.05139,0 0,-287.50505 111.3047,0 c 39.92572,2.8e-4 68.81099,6.0341 86.65591,18.10145 17.97283,12.0679 26.95936,31.38894 26.95962,57.96318 -2.6e-4,13.99352 -3.27393,25.93277 -9.82101,35.81777 -6.54758,9.75698 -16.04762,17.0104 -28.50016,21.76027"
         style="font-variant:normal;font-weight:bold;font-stretch:normal;font-family:Webdings;-inkscape-font-specification:Webdings Bold"
         id="path2987" />
    </g>
    <path
       transform="matrix(0.96890975,0,0,0.96890975,-6.3041178,552.79701)"
       d="m 512.14734,251.38065 c 0,133.33614 -108.09031,241.42645 -241.42645,241.42645 -133.33615,0 -241.426456,-108.09031 -241.426456,-241.42645 0,-133.33615 108.090306,-241.4264569 241.426456,-241.4264569 133.33614,0 241.42645,108.0903069 241.42645,241.4264569 z"
       sodipodi:ry="241.42645"
       sodipodi:rx="241.42645"
       sodipodi:cy="251.38065"
       sodipodi:cx="270.72089"
       id="path2988"
       style="fill:none;stroke:#ffffff;stroke-width:10.02402973;stroke-miterlimit:4;stroke-opacity:1;stroke-dasharray:none"
       sodipodi:type="arc" />
  </g>
</svg>
