<?xml version="1.0" encoding="UTF-8" standalone="no"?>
<!-- Created with Inkscape (http://www.inkscape.org/) -->

<svg
   xmlns:dc="http://purl.org/dc/elements/1.1/"
   xmlns:cc="http://creativecommons.org/ns#"
   xmlns:rdf="http://www.w3.org/1999/02/22-rdf-syntax-ns#"
   xmlns:svg="http://www.w3.org/2000/svg"
   xmlns="http://www.w3.org/2000/svg"
   xmlns:xlink="http://www.w3.org/1999/xlink"
   xmlns:sodipodi="http://sodipodi.sourceforge.net/DTD/sodipodi-0.dtd"
   xmlns:inkscape="http://www.inkscape.org/namespaces/inkscape"
   width="256"
   height="260"
   id="svg2"
   version="1.1"
   inkscape:version="0.48.5 r10040"
   sodipodi:docname="icon.svg">
  <defs
     id="defs4">
    <inkscape:path-effect
       is_visible="true"
       id="path-effect4008"
       effect="spiro" />
    <inkscape:path-effect
       effect="spiro"
       id="path-effect4006"
       is_visible="true" />
    <inkscape:path-effect
       is_visible="true"
       id="path-effect4004"
       effect="spiro" />
    <inkscape:path-effect
       is_visible="true"
       id="path-effect3161"
       effect="spiro" />
    <inkscape:path-effect
       effect="spiro"
       id="path-effect3157"
       is_visible="true" />
    <linearGradient
       id="linearGradient3771">
      <stop
         style="stop-color:#000000;stop-opacity:1;"
         offset="0"
         id="stop3773" />
      <stop
         id="stop3795"
         offset="0.46052632"
         style="stop-color:#000000;stop-opacity:1;" />
      <stop
         style="stop-color:#000000;stop-opacity:0"
         offset="1"
         id="stop3775" />
    </linearGradient>
    <radialGradient
       inkscape:collect="always"
       xlink:href="#linearGradient3771"
       id="radialGradient3829"
       gradientUnits="userSpaceOnUse"
       gradientTransform="matrix(0,0.33243869,-1.4983791,0,690.78032,359.10278)"
       cx="232.84016"
       cy="159.23706"
       fx="232.84016"
       fy="159.23706"
       r="33.324886" />
    <radialGradient
       inkscape:collect="always"
       xlink:href="#linearGradient3771"
       id="radialGradient3831"
       gradientUnits="userSpaceOnUse"
       gradientTransform="matrix(-0.35546222,0.09524581,-0.38780905,-1.4473231,590.56362,644.53452)"
       cx="232.84016"
       cy="159.23706"
       fx="232.84016"
       fy="159.23706"
       r="33.324886" />
    <radialGradient
       inkscape:collect="always"
       xlink:href="#linearGradient3771"
       id="radialGradient3833"
       gradientUnits="userSpaceOnUse"
       gradientTransform="matrix(-0.23937237,-0.24458338,0.97464411,-0.99586156,344.03542,654.43573)"
       cx="232.84016"
       cy="159.23706"
       fx="232.84016"
       fy="159.23706"
       r="33.324886" />
    <radialGradient
       inkscape:collect="always"
       xlink:href="#linearGradient3771"
       id="radialGradient3835"
       gradientUnits="userSpaceOnUse"
       gradientTransform="matrix(0.14945417,-0.27574285,1.3692459,0.49897051,192.06465,416.1818)"
       cx="232.84016"
       cy="159.23706"
       fx="232.84016"
       fy="159.23706"
       r="33.324886" />
    <radialGradient
       inkscape:collect="always"
       xlink:href="#linearGradient3771"
       id="radialGradient3837"
       gradientUnits="userSpaceOnUse"
       gradientTransform="matrix(0.30945331,-0.10648859,0.38089919,1.4342744,310.38892,228.91286)"
       cx="232.84016"
       cy="159.23706"
       fx="232.84016"
       fy="159.23706"
       r="33.324886" />
    <radialGradient
       inkscape:collect="always"
       xlink:href="#linearGradient3771"
       id="radialGradient3839"
       gradientUnits="userSpaceOnUse"
       gradientTransform="matrix(0.25321654,0.18876246,-0.76597563,1.034515,512.69634,219.42448)"
       cx="232.84016"
       cy="159.23706"
       fx="232.84016"
       fy="159.23706"
       r="33.324886" />
    <radialGradient
       inkscape:collect="always"
       xlink:href="#linearGradient3771"
       id="radialGradient3841"
       gradientUnits="userSpaceOnUse"
       gradientTransform="matrix(-0.09974529,-0.26010206,1.1547951,-0.37245631,285.61183,551.09526)"
       cx="232.84016"
       cy="159.23706"
       fx="232.84016"
       fy="159.23706"
       r="33.324886" />
    <radialGradient
       inkscape:collect="always"
       xlink:href="#linearGradient3771"
       id="radialGradient3843"
       gradientUnits="userSpaceOnUse"
       gradientTransform="matrix(-0.19843343,0.19551567,-0.80354002,-0.90917483,623.69734,531.37012)"
       cx="232.84016"
       cy="159.23706"
       fx="232.84016"
       fy="159.23706"
       r="33.324886" />
    <radialGradient
       inkscape:collect="always"
       xlink:href="#linearGradient3771"
       id="radialGradient3845"
       gradientUnits="userSpaceOnUse"
       gradientTransform="matrix(0.09219417,0.25996074,-1.0629657,0.374089,596.78104,309.88047)"
       cx="232.84016"
       cy="159.23706"
       fx="232.84016"
       fy="159.23706"
       r="33.324886" />
    <radialGradient
       inkscape:collect="always"
       xlink:href="#linearGradient3771"
       id="radialGradient3847"
       gradientUnits="userSpaceOnUse"
       gradientTransform="matrix(0.25446796,0.0279428,-0.13072229,0.92539534,408.33237,277.18662)"
       cx="232.84016"
       cy="159.23706"
       fx="232.84016"
       fy="159.23706"
       r="33.324886" />
    <radialGradient
       inkscape:collect="always"
       xlink:href="#linearGradient4946"
       id="radialGradient4952"
       cx="286.16666"
       cy="1026.8622"
       fx="286.16666"
       fy="1026.8622"
       r="53"
       gradientUnits="userSpaceOnUse" />
    <linearGradient
       id="linearGradient4946">
      <stop
         style="stop-color:#e4e4ff;stop-opacity:0;"
         offset="0"
         id="stop4948" />
      <stop
         id="stop4956"
         offset="0.47959185"
         style="stop-color:#eeefff;stop-opacity:0.36078432;" />
      <stop
         id="stop4954"
         offset="0.883753"
         style="stop-color:#ebecff;stop-opacity:0.68421054;" />
      <stop
         style="stop-color:#f2f3ff;stop-opacity:0.36078432;"
         offset="0.95870173"
         id="stop4958" />
      <stop
         style="stop-color:#ebeeff;stop-opacity:0;"
         offset="1"
         id="stop4950" />
    </linearGradient>
    <radialGradient
       r="53"
       fy="1026.8622"
       fx="286.16666"
       cy="1026.8622"
       cx="286.16666"
       gradientUnits="userSpaceOnUse"
       id="radialGradient8208"
       xlink:href="#linearGradient4946"
       inkscape:collect="always" />
    <radialGradient
       inkscape:collect="always"
       xlink:href="#linearGradient4946"
       id="radialGradient3936"
       gradientUnits="userSpaceOnUse"
       cx="286.16666"
       cy="1026.8622"
       fx="286.16666"
       fy="1026.8622"
       r="53" />
    <inkscape:path-effect
       effect="spiro"
       id="path-effect3157-7"
       is_visible="true" />
    <inkscape:path-effect
       effect="spiro"
       id="path-effect3157-7-3"
       is_visible="true" />
    <inkscape:path-effect
       effect="spiro"
       id="path-effect3157-7-3-7"
       is_visible="true" />
    <inkscape:path-effect
       is_visible="true"
       id="path-effect4008-3"
       effect="spiro" />
  </defs>
  <sodipodi:namedview
     id="base"
     pagecolor="#ffffff"
     bordercolor="#666666"
     borderopacity="1.0"
     inkscape:pageopacity="0.0"
     inkscape:pageshadow="2"
     inkscape:zoom="1.979899"
     inkscape:cx="107.98668"
     inkscape:cy="65.759563"
     inkscape:document-units="px"
     inkscape:current-layer="0splash"
     showgrid="false"
     inkscape:window-width="2558"
     inkscape:window-height="1379"
     inkscape:window-x="2560"
     inkscape:window-y="27"
     inkscape:window-maximized="1"
     fit-margin-top="0"
     fit-margin-left="0"
     fit-margin-right="0"
     fit-margin-bottom="0"
     showguides="true"
     inkscape:guide-bbox="true" />
  <metadata
     id="metadata7">
    <rdf:RDF>
      <cc:Work
         rdf:about="">
        <dc:format>image/svg+xml</dc:format>
        <dc:type
           rdf:resource="http://purl.org/dc/dcmitype/StillImage" />
        <dc:title />
      </cc:Work>
    </rdf:RDF>
  </metadata>
  <g
     inkscape:label="Layer 1"
     inkscape:groupmode="layer"
     id="layer1"
     transform="translate(-199.28051,-418.7416)">
    <g
       id="0splash"
       inkscape:label="#g3762"
       transform="matrix(1.4858489,0,0,1.4858489,-166.61365,-424.47172)">
      <g
         id="use2990"
         inkscape:label="#g3757"
         transform="matrix(0.53315693,0.53315693,-0.52077923,0.52077923,434.16308,287.36041)"
         style="stroke:#000000;stroke-width:3.85294461;stroke-miterlimit:4;stroke-opacity:1;stroke-dasharray:none"
         inkscape:tile-x0="33.364892"
         inkscape:tile-y0="3.1002866">
        <rect
           y="354.48859"
           x="188.89853"
           height="192.86641"
           width="119.198"
           id="rect3141"
           style="fill:#4a4a4a;fill-opacity:1;stroke:#000000;stroke-width:3.85294461;stroke-linecap:round;stroke-linejoin:round;stroke-miterlimit:4;stroke-opacity:1;stroke-dasharray:none" />
        <rect
           style="fill:#383838;fill-opacity:1;stroke:#000000;stroke-width:3.85294461;stroke-linecap:round;stroke-linejoin:round;stroke-miterlimit:4;stroke-opacity:1;stroke-dasharray:none"
           id="rect3143"
           width="68.859299"
           height="152.28334"
           x="214.06789"
           y="395.07166" />
      </g>
      <g
         id="g3253"
         transform="matrix(0.9571749,0,0,0.9571749,14.241487,126.08446)">
        <path
           style="font-size:52.50814056px;font-style:normal;font-variant:normal;font-weight:normal;font-stretch:normal;line-height:125%;letter-spacing:-1px;word-spacing:0px;fill:#000000;fill-opacity:1;stroke:none;font-family:Armalite Rifle;-inkscape-font-specification:Armalite Rifle"
           d="m 258.625,595.8125 c -4.89966,1.4313 -12.56953,-1.70866 -15.1875,4.5625 -0.4775,5.90634 -3.5509,14.50575 2.71875,18.6875 2.28891,1.18746 5.12,1.54986 7.5625,0.59375 0.52227,3.72431 1.0541,7.99473 -2.03125,10.59375 -3.51238,6.69348 3.86364,14.87896 10.90625,12.96875 6.54546,1.2404 16.20527,-0.87285 16.34375,-9 1.15076,-4.65522 -4.58661,-6.69297 -3.46875,-11.1875 -0.95739,-2.94159 3.31489,-1.69978 4.46875,-3.78125 5.83868,-2.11249 5.55685,-9.07334 5.53125,-14.34375 1.81324,-6.47371 -5.8435,-9.85183 -11.15625,-8.5625 -4.34595,0.15294 -9.06169,-1.83389 -13.21875,-0.125 0.0516,-2.21144 -1.36209,-0.68823 -2.46875,-0.40625 z"
           id="path3211"
           inkscape:connector-curvature="0" />
        <path
           style="font-size:52.50814056px;font-style:normal;font-variant:normal;font-weight:normal;font-stretch:normal;line-height:125%;letter-spacing:-1px;word-spacing:0px;fill:#000000;fill-opacity:1;stroke:none;font-family:Armalite Rifle;-inkscape-font-specification:Armalite Rifle"
           d="m 286.25,592.6875 c -2.39783,0.63195 -3.74457,2.90332 -6.59375,2.8125 -5.4632,2.29227 -6.35616,10.35289 -2.0625,14.25 -0.60542,4.15669 0.70607,8.39731 0.4375,12.3125 -0.0599,3.57375 -1.98208,6.31549 -3.3125,9.34375 -1.62554,5.38708 2.55698,12.80186 8.96875,10.96875 6.47834,0.22337 16.30714,2.49861 19.125,-5.53125 1.23942,-3.73894 -0.38135,-7.90712 -3.59375,-10.09375 0.3082,-5.37065 -0.71586,-11.3191 0.59375,-16.375 6.74005,-4.69817 1.76294,-18.17585 -6.625,-15.0625 -2.79844,0.69065 -4.06188,-3.31293 -6.9375,-2.625 z"
           id="path3213"
           inkscape:connector-curvature="0" />
        <path
           style="font-size:52.50814056px;font-style:normal;font-variant:normal;font-weight:normal;font-stretch:normal;line-height:125%;letter-spacing:-1px;word-spacing:0px;fill:#000000;fill-opacity:1;stroke:none;font-family:Armalite Rifle;-inkscape-font-specification:Armalite Rifle"
           d="m 335.09375,595.625 c -6.11741,1.41046 -13.70548,-2.83773 -18.875,1.96875 -4.92676,-3.38655 -11.24855,-1.39485 -16.78125,-1.5 -6.41074,0.63929 -9.2314,9.80913 -3.875,13.375 -2.66087,6.08774 0.25237,13.48804 -1.21875,19.59375 -5.38108,5.18981 -0.0423,15.96693 7.46875,13.96875 4.45643,-0.22766 9.52169,0.6793 13.5,-0.25 1.52536,-2.4215 4.389,1.28979 6.875,0.4375 8.78077,1.24633 15.93879,-9.45985 11.28125,-17.03125 -1.13454,-1.93742 2.34919,-3.81652 1.59375,-6.40625 -0.24351,-4.08247 -1.98061,-8.55312 1.5625,-11.59375 2.06416,-4.14959 0.75484,-8.94395 1.0625,-13.375 -0.86458,0.27083 -1.72917,0.54167 -2.59375,0.8125 z"
           id="path3215"
           inkscape:connector-curvature="0" />
        <path
           style="font-size:52.50814056px;font-style:normal;font-variant:normal;font-weight:normal;font-stretch:normal;line-height:125%;letter-spacing:-1px;word-spacing:0px;fill:#000000;fill-opacity:1;stroke:none;font-family:Armalite Rifle;-inkscape-font-specification:Armalite Rifle"
           d="m 362.71875,595.53125 c -4.88629,0.1191 -10.06204,0.70685 -14.78125,0.75 -5.47787,-0.76679 -11.36437,-0.40783 -16.78125,-0.15625 -5.17104,2.08849 -5.75771,9.90066 -1.65625,13.3125 -0.73815,5.29915 0.55713,11.35287 -0.28125,16.21875 -1.57391,2.43976 0.0174,5.43494 -1.9375,7.65625 -1.21338,8.01052 8.60308,12.27891 15.15625,10.1875 4.10866,1.15111 8.03361,-0.96492 11.90625,0.75 4.70244,-0.0919 9.41322,-0.76127 13.9375,-1.21875 6.34357,-2.47232 7.27867,-12.62071 1.1875,-15.90625 -2.84504,-3.85906 -6.71699,-8.25024 -7.5,-12.8125 2.57537,-4.33547 10.38664,-3.74912 10.125,-10.0625 0.19504,-4.87459 -4.47645,-9.43549 -9.375,-8.71875 z"
           id="path3217"
           inkscape:connector-curvature="0" />
        <path
           style="font-size:52.50814056px;font-style:normal;font-variant:normal;font-weight:normal;font-stretch:normal;line-height:125%;letter-spacing:-1px;word-spacing:0px;fill:#000000;fill-opacity:1;stroke:none;font-family:Armalite Rifle;-inkscape-font-specification:Armalite Rifle"
           d="m 387.9375,595.15625 c -4.67722,2.02978 -9.78906,-1.62403 -14.46875,1.25 -9.65979,4.02935 -13.06716,17.5954 -7.09375,25.71875 -5.60204,3.65765 -3.86108,11.71823 -2.5625,17.15625 1.89135,4.23664 7.4795,4.74734 11.125,3.125 3.94271,1.07416 7.9082,-0.0824 11.78125,1.1875 12.90654,0.16282 22.05847,-17.35307 13.34375,-27.46875 4.21701,-4.46396 3.58479,-12.34862 1.53125,-17.90625 -3.12179,-4.23683 -8.89538,-1.69513 -13.1875,-3.09375 l -0.46875,0.0312 z"
           id="path3219"
           inkscape:connector-curvature="0" />
        <path
           style="font-size:52.50814056px;font-style:normal;font-variant:normal;font-weight:normal;font-stretch:normal;line-height:125%;letter-spacing:-1px;word-spacing:0px;fill:#000000;fill-opacity:1;stroke:none;font-family:Armalite Rifle;-inkscape-font-specification:Armalite Rifle"
           d="m 413.09375,593.625 c -5.989,0.79809 -12.31873,3.77439 -13.59375,10.28125 -2.37552,6.92367 2.58427,13.98287 3.0625,20.28125 -6.66505,6.69348 -1.32209,20.82556 8.75,19.25 7.10297,0.39661 12.84047,-7.75209 9.8125,-14.21875 0.3156,-2.89071 -3.70654,-4.76237 -1.46875,-7.53125 2.44848,-7.39695 6.24638,-18.36454 -1.53125,-23.75 -0.23875,-2.6484 -2.19852,-4.85675 -5.03125,-4.3125 z"
           id="path3221"
           inkscape:connector-curvature="0" />
      </g>
      <g
         style="stroke:#000000;stroke-width:3.85294461;stroke-miterlimit:4;stroke-opacity:1;stroke-dasharray:none"
         transform="matrix(0.53191035,-0.53191037,0.53191037,0.53191035,-153.38921,657.46125)"
         inkscape:label="#g3769"
         id="use2992">
        <rect
           style="fill:#383838;fill-opacity:1;stroke:#000000;stroke-width:3.85294461;stroke-linecap:round;stroke-linejoin:round;stroke-miterlimit:4;stroke-opacity:1;stroke-dasharray:none"
           id="rect3153"
           width="8.5714283"
           height="102.14286"
           x="456.42859"
           y="320.93359" />
        <path
           sodipodi:type="arc"
           style="fill:#383838;fill-opacity:1;stroke:#000000;stroke-width:2.740417;stroke-linecap:round;stroke-linejoin:round;stroke-miterlimit:4;stroke-opacity:1;stroke-dasharray:none"
           id="path3155"
           sodipodi:cx="427.14285"
           sodipodi:cy="438.79074"
           sodipodi:rx="29.285715"
           sodipodi:ry="29.285715"
           d="m 456.42857,438.79074 c 0,16.17405 -13.11166,29.28572 -29.28572,29.28572 -16.17405,0 -29.28571,-13.11167 -29.28571,-29.28572 0,-16.17405 13.11166,-29.28571 29.28571,-29.28571 16.17406,0 29.28572,13.11166 29.28572,29.28571 z"
           transform="matrix(1.4059702,0,0,1.4059702,-139.83581,-163.85023)" />
        <rect
           style="fill:#383838;fill-opacity:1;stroke:#000000;stroke-width:3.85294461;stroke-linecap:round;stroke-linejoin:round;stroke-miterlimit:4;stroke-opacity:1;stroke-dasharray:none"
           id="rect3157"
           width="15"
           height="23.571428"
           x="453.21432"
           y="309.50504" />
        <path
           transform="matrix(1.5854423,0,0,5.0615034,-216.49604,-1767.8643)"
           d="m 456.42857,438.79074 c 0,16.17405 -13.11166,29.28572 -29.28572,29.28572 -16.17405,0 -29.28571,-13.11167 -29.28571,-29.28572 0,-16.17405 13.11166,-29.28571 29.28571,-29.28571 16.17406,0 29.28572,13.11166 29.28572,29.28571 z"
           sodipodi:ry="29.285715"
           sodipodi:rx="29.285715"
           sodipodi:cy="438.79074"
           sodipodi:cx="427.14285"
           id="path3160"
           style="opacity:0;fill:#383838;fill-opacity:1;stroke:#000000;stroke-width:1.44432509;stroke-linecap:round;stroke-linejoin:round;stroke-miterlimit:4;stroke-opacity:1;stroke-dasharray:none"
           sodipodi:type="arc" />
      </g>
      <text
         sodipodi:linespacing="125%"
         id="text2994"
         y="735.54163"
         x="251.05626"
         style="font-size:50.25947571px;font-style:normal;font-weight:normal;line-height:125%;letter-spacing:0px;word-spacing:0px;fill:#e6e6e6;fill-opacity:1;stroke:none;font-family:Sans"
         xml:space="preserve"><tspan
           style="font-style:normal;font-variant:normal;font-weight:normal;font-stretch:normal;letter-spacing:-0.9571749px;fill:#e6e6e6;fill-opacity:1;font-family:Armalite Rifle;-inkscape-font-specification:Armalite Rifle"
           y="735.54163"
           x="251.05626"
           id="tspan2996"
           sodipodi:role="line">TINKS!</tspan></text>
    </g>
  </g>
</svg>
