<?xml version="1.0" encoding="UTF-8" standalone="no"?>
<!-- Created with Inkscape (http://www.inkscape.org/) -->

<svg
   xmlns:dc="http://purl.org/dc/elements/1.1/"
   xmlns:cc="http://creativecommons.org/ns#"
   xmlns:rdf="http://www.w3.org/1999/02/22-rdf-syntax-ns#"
   xmlns:svg="http://www.w3.org/2000/svg"
   xmlns="http://www.w3.org/2000/svg"
   xmlns:sodipodi="http://sodipodi.sourceforge.net/DTD/sodipodi-0.dtd"
   xmlns:inkscape="http://www.inkscape.org/namespaces/inkscape"
   width="509.0834"
   height="324.85132"
   viewBox="0 0 509.08342 324.85131"
   id="svg2"
   version="1.1"
   inkscape:version="0.91 r13725"
   sodipodi:docname="drawing.svg"
   inkscape:export-filename="/home/privat/prog/nit/contrib/memory/art/drawing.png"
   inkscape:export-xdpi="900"
   inkscape:export-ydpi="900">
  <sodipodi:namedview
     id="base"
     pagecolor="#ffffff"
     bordercolor="#666666"
     borderopacity="1.0"
     inkscape:pageopacity="0"
     inkscape:pageshadow="2"
     inkscape:zoom="1.4"
     inkscape:cx="326.44213"
     inkscape:cy="188.58838"
     inkscape:document-units="pt"
     inkscape:current-layer="layer1"
     showgrid="false"
     inkscape:window-width="1920"
     inkscape:window-height="1136"
     inkscape:window-x="1600"
     inkscape:window-y="27"
     inkscape:window-maximized="1"
     fit-margin-top="0"
     fit-margin-left="0"
     fit-margin-right="0"
     fit-margin-bottom="0"
     inkscape:snap-text-baseline="false"
     units="pt" />
  <defs
     id="defs4" />
  <metadata
     id="metadata7">
    <rdf:RDF>
      <cc:Work
         rdf:about="">
        <dc:format>image/svg+xml</dc:format>
        <dc:type
           rdf:resource="http://purl.org/dc/dcmitype/StillImage" />
        <dc:title></dc:title>
      </cc:Work>
    </rdf:RDF>
  </metadata>
  <g
     transform="translate(-112.50514,-37.583924)"
     id="layer1"
     inkscape:groupmode="layer"
     inkscape:label="Calque 1">
    <path
       transform="matrix(1.0790955,0,0,1.1325291,-9.0916016,-22.007078)"
       inkscape:label="#path3338"
       inkscape:transform-center-y="-3.9327809"
       inkscape:transform-center-x="1.3947101"
       d="m 180.81731,133.12338 -25.13223,-13.03035 -24.98194,13.31622 4.62632,-27.92877 -20.38433,-19.644302 27.99145,-4.230572 12.38374,-25.457066 12.67335,25.314133 28.03789,3.910967 -20.15889,19.87557 z"
       inkscape:randomized="0"
       inkscape:rounded="0"
       inkscape:flatsided="false"
       sodipodi:arg2="1.5650921"
       sodipodi:arg1="0.9367736"
       sodipodi:r2="21.315176"
       sodipodi:r1="42.630352"
       sodipodi:cy="98.778198"
       sodipodi:cx="155.56349"
       sodipodi:sides="5"
       id="0star"
       style="fill:#ffffff;fill-opacity:1;stroke:#808080;stroke-width:4.52288342;stroke-linejoin:round;stroke-miterlimit:4;stroke-dasharray:none;stroke-opacity:1"
       sodipodi:type="star" />
    <ellipse
       inkscape:label="#path3342"
       ry="43.75"
       rx="43.750004"
       cy="87.475639"
       cx="256.61908"
       id="0circle"
       style="fill:#ffffff;stroke:#808080;stroke-width:5.00000048;stroke-linejoin:round;stroke-miterlimit:4;stroke-dasharray:none;stroke-opacity:1" />
    <rect
       inkscape:label="#rect3346"
       y="44.975639"
       x="319.36441"
       height="81.250008"
       width="81.250008"
       id="0rect"
       style="fill:#ffffff;stroke:#808080;stroke-width:5.00000048;stroke-linejoin:round;stroke-miterlimit:4;stroke-dasharray:none;stroke-opacity:1" />
    <path
       transform="matrix(1.138458,0.01858784,-0.01944847,1.1911688,-113.46281,-38.903848)"
       inkscape:label="#path3348"
       inkscape:transform-center-y="-4.0794014"
       inkscape:transform-center-x="0.47783259"
       d="m 536.391,131.10309 -47.49475,0.72114 -15.36253,-44.947336 38.00017,-28.500132 38.84794,27.33329 z"
       inkscape:randomized="0"
       inkscape:rounded="0"
       inkscape:flatsided="true"
       sodipodi:arg2="1.5556138"
       sodipodi:arg1="0.92729522"
       sodipodi:r2="32.545895"
       sodipodi:r1="40.406101"
       sodipodi:cy="98.778206"
       sodipodi:cx="512.14734"
       sodipodi:sides="5"
       id="0penta"
       style="fill:#ffffff;stroke:#808080;stroke-width:4.2930603;stroke-linejoin:round;stroke-miterlimit:4;stroke-dasharray:none;stroke-opacity:1"
       sodipodi:type="star" />
    <path
       transform="matrix(0.9848695,-0.0389352,0.04401556,1.1133778,-29.129711,11.863574)"
       inkscape:label="#path3350"
       inkscape:transform-center-y="-5.2078962"
       inkscape:transform-center-x="-1.6611955"
       d="m 652.55851,129.08278 -88.77492,-3.29401 47.24016,-75.23433 z"
       inkscape:randomized="0"
       inkscape:rounded="0"
       inkscape:flatsided="true"
       sodipodi:arg2="1.6078845"
       sodipodi:arg1="0.56068699"
       sodipodi:r2="34.010933"
       sodipodi:r1="51.289494"
       sodipodi:cy="101.80866"
       sodipodi:cx="609.12195"
       sodipodi:sides="3"
       id="0triangle"
       style="fill:#ffffff;stroke:#808080;stroke-width:4.77111959;stroke-linejoin:round;stroke-miterlimit:4;stroke-dasharray:none;stroke-opacity:1"
       sodipodi:type="star" />
    <g
       transform="translate(-7.1428071,-28.263269)"
       style="fill:#ffffff;stroke:#808080;stroke-width:5.00000048;stroke-linejoin:round;stroke-miterlimit:4;stroke-dasharray:none;stroke-opacity:1"
       inkscape:label="#g3356"
       id="0cross">
      <path
         style="fill:#ffffff;stroke:#808080;stroke-width:5;stroke-linejoin:round;stroke-miterlimit:4;stroke-dasharray:none;stroke-opacity:1"
         d="m 42.5625,125.5 0,31.25 -31.25,0 0,25 31.25,0 0,31.25 25,0 0,-31.25 31.25,0 0,-25 -31.25,0 0,-31.25 -25,0 z"
         transform="translate(114.94512,48.417475)"
         id="rect3352"
         inkscape:connector-curvature="0" />
    </g>
    <rect
       inkscape:label="#rect3341"
       transform="matrix(0.68019493,0.73303128,-0.73365707,0.67951991,0,0)"
       ry="0"
       y="-93.236977"
       x="286.09988"
       height="61.163219"
       width="62.66906"
       id="0diamond"
       style="fill:#ffffff;stroke:#808080;stroke-width:5.00000143;stroke-linejoin:round;stroke-miterlimit:4;stroke-dasharray:none;stroke-opacity:1" />
    <path
       inkscape:label="#path3350"
       inkscape:connector-curvature="0"
       id="0moon"
       d="m 368.00103,142.79236 a 50.857007,43.749388 0 0 0 -50.85758,43.75075 50.857007,43.749388 0 0 0 50.85758,43.74925 50.857007,43.749388 0 0 0 36.5966,-13.44214 37.525559,30.468323 0 0 1 -3.51512,0.16013 37.525559,30.468323 0 0 1 -37.52646,-30.46724 37.525559,30.468323 0 0 1 37.52646,-30.46873 37.525559,30.468323 0 0 1 3.56094,0.14501 50.857007,43.749388 0 0 0 -36.64242,-13.42703 z"
       style="fill:#ffffff;stroke:#808080;stroke-width:5.00000048;stroke-linejoin:round;stroke-miterlimit:4;stroke-dasharray:none;stroke-opacity:1" />
    <path
       inkscape:label="#path3356"
       inkscape:connector-curvature="0"
       id="0spiral"
       d="m 467.10669,144.22922 c -20.15895,-0.32141 -38.9065,16.76425 -41.19858,37.60291 -3.86937,23.35281 16.7358,47.48676 39.64103,45.31644 12.20102,-0.76865 23.76919,-8.45705 29.03604,-20.00332 6.61043,-13.59525 3.19101,-31.78746 -8.72849,-41.00231 -11.91023,-9.84408 -31.5447,-7.79332 -40.34686,5.46911 -8.25602,11.53909 -5.3078,30.58816 7.47626,37.21364 10.28179,6.05468 25.63854,1.15001 29.0991,-11.11553 3.04684,-9.25632 -2.65279,-21.09349 -12.45674,-22.21563 -7.74971,-1.31975 -16.07358,6.63167 -13.65087,14.90034 1.37551,7.39459 14.12722,8.17257 14.08847,-0.22482 -0.0955,-2.72794 -2.63922,-5.69968 -5.32908,-4.79848 4.38499,-3.96292 10.36557,1.52768 9.81632,6.69218 0.19607,6.907 -6.58875,11.92951 -12.86343,10.71083 -8.21344,-0.99562 -14.24185,-9.85518 -12.49382,-18.25737 1.54211,-10.78621 12.75113,-18.38943 22.89359,-15.65962 11.86257,2.42582 20.00065,15.79672 17.20605,27.99309 -2.41584,13.54418 -15.7679,23.59081 -28.91368,21.59767 -14.20193,-1.45306 -26.32571,-14.644 -26.46485,-29.59643 -0.8484,-17.59211 12.58621,-34.40757 29.59974,-35.87494 17.64776,-2.34404 36.43269,10.56977 40.14043,28.9258 3.86993,15.99133 -2.31691,34.4508 -15.45688,44.18203 -0.10231,3.94543 4.80831,7.62163 7.87431,4.41178 19.69304,-16.79994 22.96064,-50.96148 5.42672,-70.6373 -8.57029,-10.04432 -21.48622,-15.8896 -34.39478,-15.63007 z"
       style="color:#000000;font-style:normal;font-variant:normal;font-weight:normal;font-stretch:normal;font-size:medium;line-height:normal;font-family:sans-serif;text-indent:0;text-align:start;text-decoration:none;text-decoration-line:none;letter-spacing:normal;word-spacing:normal;text-transform:none;direction:ltr;block-progression:tb;writing-mode:lr-tb;baseline-shift:baseline;text-anchor:start;display:inline;overflow:visible;visibility:visible;fill:#ffffff;fill-opacity:1;fill-rule:evenodd;stroke:#808080;stroke-width:5.00000048;stroke-linejoin:round;stroke-miterlimit:4;stroke-dasharray:none;stroke-opacity:1;enable-background:accumulate" />
    <g
       id="0heart"
       style="font-style:normal;font-variant:normal;font-weight:normal;font-stretch:normal;font-size:113.93434906px;line-height:125%;font-family:Sans;-inkscape-font-specification:'Sans, Normal';text-align:start;letter-spacing:0px;word-spacing:0px;writing-mode:lr-tb;text-anchor:start;fill:#ffffff;fill-opacity:1;stroke:#808080;stroke-width:4.7127285;stroke-linejoin:round;stroke-miterlimit:4;stroke-dasharray:none;stroke-opacity:1"
       transform="matrix(1.0677772,0,0,1.0541795,-59.938025,-33.284976)">
      <path
         inkscape:connector-curvature="0"
         id="path2998"
         d="m 572.55695,170.41572 c 7.52883,8e-5 13.44436,4.35792 17.74661,13.07352 1.55765,3.44925 2.37358,6.0825 2.44781,7.89974 l 0.1669,0 c 1.29802,-6.00819 3.65311,-10.99652 7.06526,-14.96501 4.00544,-4.00542 8.51163,-6.00817 13.51858,-6.00825 7.75131,8e-5 13.96355,4.15393 18.63672,12.46157 1.18672,3.07837 1.78013,5.97123 1.78022,8.67859 -9e-5,9.27205 -3.85724,18.11753 -11.57145,26.53647 l -29.42933,35.32632 -0.3338,0 -31.26518,-38.33045 c -6.2308,-7.603 -9.34619,-15.4471 -9.34618,-23.53234 -10e-6,-7.8255 3.69024,-14.03773 11.07077,-18.63672 3.11537,-1.66888 6.28639,-2.50336 9.51307,-2.50344"
         style="stroke:#808080;stroke-width:4.7127285;stroke-linejoin:round;stroke-miterlimit:4;stroke-dasharray:none;stroke-opacity:1" />
    </g>
    <path
       style="fill:#000000;fill-opacity:0.57983195;fill-rule:nonzero;stroke:#000000;stroke-width:2.50000024;stroke-linecap:butt;stroke-linejoin:round;stroke-miterlimit:4;stroke-dasharray:none;stroke-opacity:1"
       d="m 261.37374,293.86379 c -21.42857,-42.85714 -21.42857,-42.85714 -21.42857,-42.85714 l 40.71428,25 z"
       id="0cursor"
       inkscape:connector-curvature="0"
       inkscape:label="#path3043" />
    <g
       style="font-style:normal;font-variant:normal;font-weight:normal;font-stretch:normal;font-size:40px;line-height:125%;font-family:'Droid Sans';-inkscape-font-specification:'Droid Sans, Normal';text-align:start;letter-spacing:0px;word-spacing:0px;writing-mode:lr-tb;text-anchor:start;fill:#ffffff;fill-opacity:1;stroke:#000000;stroke-width:2.5;stroke-linecap:butt;stroke-linejoin:round;stroke-miterlimit:4;stroke-dasharray:none;stroke-opacity:1"
       id="0hard0"
       inkscape:label="#text5595"
       transform="matrix(0.7,0,0,0.7,64.765671,18.829203)">
      <g
         style="font-style:normal;font-variant:normal;font-weight:bold;font-stretch:normal;font-size:40px;line-height:125%;font-family:'Droid Sans';-inkscape-font-specification:'Droid Sans, Bold';text-align:start;letter-spacing:0px;word-spacing:0px;writing-mode:lr-tb;text-anchor:start;fill:#ffffff;fill-opacity:1;stroke:#000000;stroke-width:2.5;stroke-linecap:butt;stroke-linejoin:round;stroke-miterlimit:4;stroke-dasharray:none;stroke-opacity:1"
         id="text5638">
        <path
           d="m 361.89825,341.57028 q -1.58203,0 -2.63671,1.11328 -1.03516,1.11328 -1.19141,3.4961 l 7.59766,0 q -0.0195,-0.9961 -0.25391,-1.83594 -0.23438,-0.83984 -0.70313,-1.44531 -0.46875,-0.625 -1.17187,-0.97657 -0.70313,-0.35156 -1.64063,-0.35156 z m 0.76172,18.39844 q -2.34375,0 -4.3164,-0.68359 -1.97266,-0.6836 -3.39844,-2.05079 -1.42578,-1.38671 -2.22656,-3.47656 -0.78125,-2.10937 -0.78125,-4.9414 0,-2.8711 0.72265,-5.01954 0.72266,-2.14843 2.01172,-3.57421 1.3086,-1.44532 3.125,-2.16797 1.83594,-0.72266 4.0625,-0.72266 2.16797,0 3.90625,0.66406 1.75781,0.64453 2.96875,1.91407 1.23047,1.26953 1.875,3.125 0.66406,1.83593 0.66406,4.21875 l 0,2.89062 -13.32031,0 q 0.0391,1.25 0.39063,2.26563 0.37109,0.99609 1.01562,1.69921 0.66406,0.6836 1.58203,1.05469 0.9375,0.3711 2.12891,0.3711 0.99609,0 1.875,-0.0977 0.89844,-0.11719 1.73828,-0.33203 0.83984,-0.21485 1.66016,-0.52735 0.82031,-0.33203 1.67968,-0.76171 l 0,4.60937 q -0.78125,0.41016 -1.58203,0.70313 -0.78125,0.27343 -1.66015,0.46875 -0.87891,0.19531 -1.89453,0.27343 -1.01563,0.0977 -2.22657,0.0977 z"
           style="fill:#ffffff;fill-opacity:1;stroke:#000000;stroke-width:2.5;stroke-linejoin:round;stroke-miterlimit:4;stroke-dasharray:none;stroke-opacity:1"
           id="path5643"
           inkscape:connector-curvature="0" />
        <path
           d="m 389.02716,359.57809 -1.15234,-2.96875 -0.17578,0 q -0.64454,0.87891 -1.28907,1.52344 -0.64453,0.625 -1.40625,1.03516 -0.76172,0.41015 -1.71875,0.60547 -0.9375,0.19531 -2.1875,0.19531 -1.32812,0 -2.46093,-0.41016 -1.13282,-0.42968 -1.97266,-1.26953 -0.82031,-0.85937 -1.28906,-2.14844 -0.46875,-1.30859 -0.46875,-3.08593 0,-3.47657 2.22656,-5.11719 2.22656,-1.66016 6.66016,-1.83594 l 3.47656,-0.11719 0,-1.64062 q 0,-1.34766 -0.78125,-1.99219 -0.78125,-0.64453 -2.1875,-0.64453 -1.40625,0 -2.75391,0.41016 -1.32812,0.41015 -2.67578,1.09375 l -1.93359,-3.94532 q 1.64062,-0.91796 3.63281,-1.44531 1.99219,-0.52734 4.17969,-0.52734 4.08203,0 6.25,1.91406 2.1875,1.91406 2.1875,5.82031 l 0,14.55078 -4.16016,0 z m -1.75781,-10.11718 -1.97266,0.0781 q -1.1914,0.0391 -2.01172,0.3125 -0.82031,0.27344 -1.32812,0.74219 -0.48828,0.44922 -0.72266,1.09375 -0.21484,0.625 -0.21484,1.40625 0,1.36719 0.66406,1.95312 0.66406,0.56641 1.73828,0.56641 0.82031,0 1.52344,-0.27344 0.70312,-0.29297 1.21094,-0.83984 0.52734,-0.56641 0.82031,-1.36719 0.29297,-0.82031 0.29297,-1.875 l 0,-1.79687 z"
           style="fill:#ffffff;fill-opacity:1;stroke:#000000;stroke-width:2.5;stroke-linejoin:round;stroke-miterlimit:4;stroke-dasharray:none;stroke-opacity:1"
           id="path5645"
           inkscape:connector-curvature="0" />
        <path
           d="m 413.87091,353.09372 q 0,1.71875 -0.625,3.00781 -0.625,1.28906 -1.77734,2.14844 -1.15235,0.85937 -2.79297,1.28906 -1.64063,0.42969 -3.67188,0.42969 -1.07422,0 -1.99218,-0.0781 -0.91797,-0.0586 -1.73829,-0.21484 -0.82031,-0.15625 -1.58203,-0.39062 -0.76172,-0.23438 -1.54297,-0.58594 l 0,-4.92188 q 0.82032,0.41016 1.71875,0.74219 0.91797,0.33203 1.81641,0.58594 0.89844,0.23437 1.73828,0.37109 0.85938,0.13672 1.58203,0.13672 0.80078,0 1.36719,-0.13672 0.56641,-0.15625 0.91797,-0.41015 0.37109,-0.27344 0.52734,-0.625 0.17578,-0.3711 0.17578,-0.78125 0,-0.41016 -0.13671,-0.72266 -0.11719,-0.33203 -0.56641,-0.68359 -0.44922,-0.3711 -1.32813,-0.82032 -0.85937,-0.46875 -2.32421,-1.13281 -1.42579,-0.64453 -2.48047,-1.26953 -1.03516,-0.64453 -1.71875,-1.42578 -0.66407,-0.78125 -0.9961,-1.77735 -0.33203,-1.01562 -0.33203,-2.40234 0,-1.52344 0.58594,-2.65625 0.58594,-1.15234 1.66016,-1.91406 1.07421,-0.76172 2.57812,-1.13281 1.52344,-0.39063 3.37891,-0.39063 1.95312,0 3.71093,0.44922 1.75782,0.44922 3.61329,1.34766 l -1.79688,4.21875 q -1.48437,-0.70313 -2.83203,-1.15235 -1.34766,-0.44922 -2.69531,-0.44922 -1.21094,0 -1.75782,0.42969 -0.52734,0.42969 -0.52734,1.17188 0,0.39062 0.13672,0.70312 0.13672,0.29297 0.54687,0.625 0.41016,0.3125 1.15235,0.70313 0.74219,0.37109 1.93359,0.91796 1.38672,0.60547 2.5,1.21094 1.11328,0.58594 1.91406,1.34766 0.80079,0.76172 1.23047,1.77734 0.42969,1.01563 0.42969,2.46094 z"
           style="fill:#ffffff;fill-opacity:1;stroke:#000000;stroke-width:2.5;stroke-linejoin:round;stroke-miterlimit:4;stroke-dasharray:none;stroke-opacity:1"
           id="path5647"
           inkscape:connector-curvature="0" />
        <path
           d="m 415.41388,337.74216 6.52344,0 3.51562,12.28515 q 0.3125,1.01563 0.44922,2.16797 0.15625,1.15235 0.19531,2.07031 l 0.11719,0 q 0.0391,-0.44921 0.0977,-0.99609 0.0781,-0.54687 0.17578,-1.11328 0.0977,-0.56641 0.21484,-1.11328 0.13672,-0.56641 0.27344,-1.01563 l 3.4375,-12.28515 6.5625,0 -8.63281,24.6289 q -1.21094,3.45703 -3.30078,5.13672 -2.08985,1.67969 -5.23438,1.67969 -1.01562,0 -1.75781,-0.11719 -0.74219,-0.0977 -1.26953,-0.21484 l 0,-4.72656 q 0.41015,0.0977 1.03515,0.17578 0.625,0.0781 1.3086,0.0781 0.9375,0 1.60156,-0.2539 0.66406,-0.25391 1.13281,-0.72266 0.48828,-0.44922 0.82031,-1.09375 0.35157,-0.64453 0.60547,-1.44531 l 0.3711,-1.09375 -8.24219,-22.03125 z"
           style="fill:#ffffff;fill-opacity:1;stroke:#000000;stroke-width:2.5;stroke-linejoin:round;stroke-miterlimit:4;stroke-dasharray:none;stroke-opacity:1"
           id="path5649"
           inkscape:connector-curvature="0" />
      </g>
    </g>
    <g
       style="font-style:normal;font-variant:normal;font-weight:bold;font-stretch:normal;font-size:40px;line-height:125%;font-family:'Droid Sans';-inkscape-font-specification:'Droid Sans, Bold';text-align:start;letter-spacing:0px;word-spacing:0px;writing-mode:lr-tb;text-anchor:start;fill:#ffffff;fill-opacity:1;stroke:#000000;stroke-width:2.5;stroke-linecap:round;stroke-linejoin:round;stroke-miterlimit:4;stroke-dasharray:none;stroke-opacity:1"
       id="0hard1"
       inkscape:label="#text5599"
       transform="matrix(0.7,0,0,0.7,55.673321,14.516296)">
      <path
         d="m 372.53442,411.00665 -5.95703,0 0,-12.7539 q 0,-2.36328 -0.70312,-3.53516 -0.70313,-1.19141 -2.20703,-1.19141 -1.13282,0 -1.89453,0.46875 -0.74219,0.46875 -1.19141,1.38672 -0.44922,0.91797 -0.64453,2.26563 -0.19531,1.34765 -0.19531,3.08594 l 0,10.27343 -5.95704,0 0,-21.83593 4.55079,0 0.80078,2.79296 0.33203,0 q 0.46875,-0.83984 1.11328,-1.44531 0.66406,-0.60547 1.44531,-0.99609 0.78125,-0.39063 1.66016,-0.56641 0.8789,-0.19531 1.77734,-0.19531 2.2461,0 3.8086,0.78125 1.58203,0.76172 2.42187,2.42187 l 0.48828,0 q 0.46875,-0.83984 1.13281,-1.44531 0.66407,-0.60547 1.46485,-0.99609 0.80078,-0.39063 1.67969,-0.56641 0.89843,-0.19531 1.79687,-0.19531 3.51563,0 5.29297,1.91406 1.79687,1.89453 1.79687,6.09375 l 0,14.23828 -5.97656,0 0,-12.7539 q 0,-2.36328 -0.70312,-3.53516 -0.70313,-1.19141 -2.20703,-1.19141 -2.12891,0 -3.02735,1.69922 -0.89844,1.67969 -0.89844,4.82422 l 0,10.95703 z"
         style="fill:#ffffff;fill-opacity:1;stroke:#000000;stroke-width:2.5;stroke-linecap:round;stroke-linejoin:round;stroke-miterlimit:4;stroke-dasharray:none;stroke-opacity:1"
         id="path5626"
         inkscape:connector-curvature="0" />
      <path
         d="m 400.2688,392.99884 q -1.58203,0 -2.63672,1.11328 -1.03516,1.11328 -1.19141,3.4961 l 7.59766,0 q -0.0195,-0.9961 -0.25391,-1.83594 -0.23437,-0.83985 -0.70312,-1.44531 -0.46875,-0.625 -1.17188,-0.97657 -0.70312,-0.35156 -1.64062,-0.35156 z m 0.76172,18.39844 q -2.34375,0 -4.31641,-0.6836 -1.97265,-0.68359 -3.39844,-2.05078 -1.42578,-1.38672 -2.22656,-3.47656 -0.78125,-2.10937 -0.78125,-4.94141 0,-2.87109 0.72266,-5.01953 0.72265,-2.14843 2.01172,-3.57422 1.30859,-1.44531 3.125,-2.16796 1.83593,-0.72266 4.0625,-0.72266 2.16797,0 3.90625,0.66406 1.75781,0.64453 2.96875,1.91406 1.23047,1.26954 1.875,3.125 0.66406,1.83594 0.66406,4.21875 l 0,2.89063 -13.32031,0 q 0.0391,1.25 0.39062,2.26562 0.3711,0.9961 1.01563,1.69922 0.66406,0.6836 1.58203,1.05469 0.9375,0.37109 2.1289,0.37109 0.9961,0 1.875,-0.0976 0.89844,-0.11719 1.73829,-0.33203 0.83984,-0.21485 1.66015,-0.52735 0.82031,-0.33203 1.67969,-0.76172 l 0,4.60938 q -0.78125,0.41016 -1.58203,0.70312 -0.78125,0.27344 -1.66016,0.46875 -0.8789,0.19532 -1.89453,0.27344 -1.01562,0.0977 -2.22656,0.0977 z"
         style="fill:#ffffff;fill-opacity:1;stroke:#000000;stroke-width:2.5;stroke-linecap:round;stroke-linejoin:round;stroke-miterlimit:4;stroke-dasharray:none;stroke-opacity:1"
         id="path5628"
         inkscape:connector-curvature="0" />
      <path
         d="m 421.14771,411.39728 q -1.67969,0 -3.06641,-0.72266 -1.38672,-0.72265 -2.38281,-2.1289 -0.9961,-1.42579 -1.5625,-3.53516 -0.54688,-2.10938 -0.54688,-4.88281 0,-2.8125 0.54688,-4.92188 0.5664,-2.1289 1.58203,-3.55469 1.03515,-1.44531 2.46094,-2.16796 1.42578,-0.72266 3.14453,-0.72266 1.05468,0 1.93359,0.25391 0.87891,0.23437 1.58203,0.68359 0.70313,0.42969 1.25,1.01562 0.56641,0.56641 0.9961,1.25 l 0.19531,0 q -0.11719,-0.76171 -0.21485,-1.54296 -0.0976,-0.66407 -0.17578,-1.40625 -0.0586,-0.76172 -0.0586,-1.40625 l 0,-6.99219 5.95703,0 0,30.39062 -4.55078,0 -1.15234,-2.83203 -0.25391,0 q -0.41016,0.66406 -0.9375,1.26953 -0.52734,0.58594 -1.23047,1.01563 -0.68359,0.42969 -1.5625,0.68359 -0.85937,0.25391 -1.95312,0.25391 z m 2.16796,-4.7461 q 1.05469,0 1.79688,-0.35156 0.74219,-0.37109 1.19141,-1.09375 0.46875,-0.74219 0.68359,-1.83594 0.23437,-1.09375 0.25391,-2.55859 l 0,-0.64453 q 0,-1.58203 -0.19532,-2.8125 -0.19531,-1.23047 -0.64453,-2.05078 -0.44922,-0.83985 -1.21094,-1.26953 -0.76171,-0.42969 -1.91406,-0.42969 -1.875,0 -2.7539,1.69922 -0.87891,1.67969 -0.87891,4.90234 0,3.22266 0.87891,4.84375 0.89843,1.60156 2.79296,1.60156 z"
         style="fill:#ffffff;fill-opacity:1;stroke:#000000;stroke-width:2.5;stroke-linecap:round;stroke-linejoin:round;stroke-miterlimit:4;stroke-dasharray:none;stroke-opacity:1"
         id="path5630"
         inkscape:connector-curvature="0" />
      <path
         d="m 438.76489,383.52618 q 0,-0.83984 0.25391,-1.38671 0.25391,-0.56641 0.68359,-0.89844 0.44922,-0.35156 1.03516,-0.48828 0.60547,-0.13672 1.26953,-0.13672 0.66406,0 1.25,0.13672 0.58594,0.13672 1.01563,0.48828 0.44921,0.33203 0.70312,0.89844 0.27344,0.54687 0.27344,1.38671 0,0.82032 -0.27344,1.38672 -0.25391,0.56641 -0.70312,0.91797 -0.42969,0.33203 -1.01563,0.48828 -0.58594,0.13672 -1.25,0.13672 -0.66406,0 -1.26953,-0.13672 -0.58594,-0.15625 -1.03516,-0.48828 -0.42968,-0.35156 -0.68359,-0.91797 -0.25391,-0.5664 -0.25391,-1.38672 z m 6.21094,27.48047 -5.95703,0 0,-21.83593 5.95703,0 0,21.83593 z"
         style="fill:#ffffff;fill-opacity:1;stroke:#000000;stroke-width:2.5;stroke-linecap:round;stroke-linejoin:round;stroke-miterlimit:4;stroke-dasharray:none;stroke-opacity:1"
         id="path5632"
         inkscape:connector-curvature="0" />
      <path
         d="m 465.48364,411.00665 -0.80078,-2.79297 -0.3125,0 q -0.48828,0.83985 -1.17187,1.44532 -0.66407,0.58593 -1.46485,0.97656 -0.80078,0.39062 -1.69922,0.56641 -0.89843,0.19531 -1.83593,0.19531 -1.60157,0 -2.91016,-0.44922 -1.30859,-0.46875 -2.24609,-1.44531 -0.9375,-0.97657 -1.44532,-2.48047 -0.50781,-1.50391 -0.50781,-3.61328 l 0,-14.23828 5.95703,0 0,12.7539 q 0,2.36328 0.70313,3.55469 0.72265,1.17187 2.28515,1.17187 1.17188,0 1.95313,-0.46875 0.78125,-0.46875 1.23047,-1.38671 0.46875,-0.91797 0.66406,-2.26563 0.19531,-1.34766 0.19531,-3.08594 l 0,-10.27343 5.95703,0 0,21.83593 -4.55078,0 z"
         style="fill:#ffffff;fill-opacity:1;stroke:#000000;stroke-width:2.5;stroke-linecap:round;stroke-linejoin:round;stroke-miterlimit:4;stroke-dasharray:none;stroke-opacity:1"
         id="path5634"
         inkscape:connector-curvature="0" />
      <path
         d="m 495.03442,411.00665 -5.95703,0 0,-12.7539 q 0,-2.36328 -0.70312,-3.53516 -0.70313,-1.19141 -2.20703,-1.19141 -1.13282,0 -1.89453,0.46875 -0.74219,0.46875 -1.19141,1.38672 -0.44922,0.91797 -0.64453,2.26563 -0.19531,1.34765 -0.19531,3.08594 l 0,10.27343 -5.95704,0 0,-21.83593 4.55079,0 0.80078,2.79296 0.33203,0 q 0.46875,-0.83984 1.11328,-1.44531 0.66406,-0.60547 1.44531,-0.99609 0.78125,-0.39063 1.66016,-0.56641 0.8789,-0.19531 1.77734,-0.19531 2.2461,0 3.8086,0.78125 1.58203,0.76172 2.42187,2.42187 l 0.48828,0 q 0.46875,-0.83984 1.13281,-1.44531 0.66407,-0.60547 1.46485,-0.99609 0.80078,-0.39063 1.67969,-0.56641 0.89843,-0.19531 1.79687,-0.19531 3.51563,0 5.29297,1.91406 1.79687,1.89453 1.79687,6.09375 l 0,14.23828 -5.97656,0 0,-12.7539 q 0,-2.36328 -0.70312,-3.53516 -0.70313,-1.19141 -2.20703,-1.19141 -2.12891,0 -3.02735,1.69922 -0.89844,1.67969 -0.89844,4.82422 l 0,10.95703 z"
         style="fill:#ffffff;fill-opacity:1;stroke:#000000;stroke-width:2.5;stroke-linecap:round;stroke-linejoin:round;stroke-miterlimit:4;stroke-dasharray:none;stroke-opacity:1"
         id="path5636"
         inkscape:connector-curvature="0" />
    </g>
    <g
       style="font-style:normal;font-variant:normal;font-weight:bold;font-stretch:normal;font-size:40px;line-height:125%;font-family:'Droid Sans';-inkscape-font-specification:'Droid Sans, Bold';text-align:start;letter-spacing:0px;word-spacing:0px;writing-mode:lr-tb;text-anchor:start;fill:#ffffff;fill-opacity:1;stroke:#000000;stroke-width:2.5;stroke-linecap:butt;stroke-linejoin:round;stroke-miterlimit:4;stroke-dasharray:none;stroke-opacity:1"
       id="0hard2"
       inkscape:label="#text5603"
       transform="matrix(0.7,0,0,0.7,55.939641,18.659146)">
      <path
         d="m 375.58685,458.14954 -5.95703,0 0,-12.75391 q 0,-2.36328 -0.74219,-3.53516 -0.72265,-1.1914 -2.24609,-1.1914 -1.15234,0 -1.93359,0.46875 -0.78125,0.46875 -1.25,1.38672 -0.46875,0.91796 -0.66407,2.26562 -0.19531,1.34766 -0.19531,3.08594 l 0,10.27344 -5.95703,0 0,-30.39063 5.95703,0 0,6.19141 q 0,0.82031 -0.0391,1.73828 -0.0391,0.89844 -0.0977,1.66015 -0.0781,0.89844 -0.13672,1.75782 l 0.3125,0 q 0.95704,-1.69922 2.44141,-2.44141 1.48438,-0.76172 3.35938,-0.76172 1.62109,0 2.92968,0.46875 1.32813,0.44922 2.26563,1.42578 0.9375,0.97657 1.44531,2.5 0.50781,1.50391 0.50781,3.61328 l 0,14.23829 z"
         style="fill:#ffffff;fill-opacity:1;stroke:#000000;stroke-width:2.5;stroke-linejoin:round;stroke-miterlimit:4;stroke-dasharray:none;stroke-opacity:1"
         id="path5652"
         inkscape:connector-curvature="0" />
      <path
         d="m 394.39545,458.14954 -1.15235,-2.96875 -0.17578,0 q -0.64453,0.8789 -1.28906,1.52343 -0.64453,0.625 -1.40625,1.03516 -0.76172,0.41016 -1.71875,0.60547 -0.9375,0.19531 -2.1875,0.19531 -1.32813,0 -2.46094,-0.41016 -1.13281,-0.42968 -1.97265,-1.26953 -0.82032,-0.85937 -1.28907,-2.14843 -0.46875,-1.3086 -0.46875,-3.08594 0,-3.47656 2.22657,-5.11719 2.22656,-1.66016 6.66015,-1.83594 l 3.47656,-0.11718 0,-1.64063 q 0,-1.34766 -0.78125,-1.99219 -0.78125,-0.64453 -2.1875,-0.64453 -1.40625,0 -2.7539,0.41016 -1.32813,0.41015 -2.67578,1.09375 l -1.9336,-3.94531 q 1.64063,-0.91797 3.63282,-1.44532 1.99218,-0.52734 4.17968,-0.52734 4.08203,0 6.25,1.91406 2.1875,1.91406 2.1875,5.82031 l 0,14.55079 -4.16015,0 z m -1.75782,-10.11719 -1.97265,0.0781 q -1.19141,0.0391 -2.01172,0.3125 -0.82031,0.27344 -1.32813,0.74219 -0.48828,0.44922 -0.72265,1.09375 -0.21485,0.625 -0.21485,1.40625 0,1.36719 0.66407,1.95313 0.66406,0.5664 1.73828,0.5664 0.82031,0 1.52344,-0.27344 0.70312,-0.29296 1.21093,-0.83984 0.52735,-0.56641 0.82032,-1.36719 0.29296,-0.82031 0.29296,-1.875 l 0,-1.79687 z"
         style="fill:#ffffff;fill-opacity:1;stroke:#000000;stroke-width:2.5;stroke-linejoin:round;stroke-miterlimit:4;stroke-dasharray:none;stroke-opacity:1"
         id="path5654"
         inkscape:connector-curvature="0" />
      <path
         d="m 416.07513,435.90344 q 0.23438,0 0.50782,0.0195 0.29297,0 0.54687,0.0391 0.27344,0.0195 0.48828,0.0586 0.23438,0.0195 0.35157,0.0586 l 0,5.58594 q -0.15625,-0.0391 -0.42969,-0.0781 -0.27344,-0.0391 -0.58594,-0.0586 -0.29297,-0.0391 -0.58594,-0.0391 -0.29297,-0.0195 -0.48828,-0.0195 -1.15234,0 -2.1289,0.29297 -0.95704,0.29297 -1.66016,0.95703 -0.68359,0.64453 -1.07422,1.71875 -0.37109,1.05469 -0.37109,2.59765 l 0,11.11329 -5.95703,0 0,-21.83594 4.51171,0 0.87891,3.28125 0.29297,0 q 0.46875,-0.83985 1.01562,-1.52344 0.54688,-0.68359 1.21094,-1.15234 0.6836,-0.48828 1.52344,-0.74219 0.85937,-0.27344 1.95312,-0.27344 z"
         style="fill:#ffffff;fill-opacity:1;stroke:#000000;stroke-width:2.5;stroke-linejoin:round;stroke-miterlimit:4;stroke-dasharray:none;stroke-opacity:1"
         id="path5656"
         inkscape:connector-curvature="0" />
      <path
         d="m 428.45795,458.54016 q -1.67969,0 -3.06641,-0.72266 -1.38672,-0.72265 -2.38281,-2.1289 -0.9961,-1.42578 -1.5625,-3.53516 -0.54688,-2.10937 -0.54688,-4.88281 0,-2.8125 0.54688,-4.92188 0.5664,-2.1289 1.58203,-3.55468 1.03516,-1.44532 2.46094,-2.16797 1.42578,-0.72266 3.14453,-0.72266 1.05469,0 1.93359,0.25391 0.87891,0.23437 1.58203,0.68359 0.70313,0.42969 1.25,1.01563 0.56641,0.5664 0.9961,1.25 l 0.19531,0 q -0.11719,-0.76172 -0.21484,-1.54297 -0.0977,-0.66406 -0.17579,-1.40625 -0.0586,-0.76172 -0.0586,-1.40625 l 0,-6.99219 5.95703,0 0,30.39063 -4.55078,0 -1.15234,-2.83204 -0.25391,0 q -0.41016,0.66407 -0.9375,1.26954 -0.52734,0.58593 -1.23047,1.01562 -0.68359,0.42969 -1.5625,0.68359 -0.85937,0.25391 -1.95312,0.25391 z m 2.16797,-4.74609 q 1.05468,0 1.79687,-0.35157 0.74219,-0.37109 1.19141,-1.09375 0.46875,-0.74218 0.68359,-1.83593 0.23438,-1.09375 0.25391,-2.5586 l 0,-0.64453 q 0,-1.58203 -0.19532,-2.8125 -0.19531,-1.23047 -0.64453,-2.05078 -0.44922,-0.83984 -1.21093,-1.26953 -0.76172,-0.42969 -1.91407,-0.42969 -1.875,0 -2.7539,1.69922 -0.87891,1.67969 -0.87891,4.90234 0,3.22266 0.87891,4.84375 0.89843,1.60157 2.79297,1.60157 z"
         style="fill:#ffffff;fill-opacity:1;stroke:#000000;stroke-width:2.5;stroke-linejoin:round;stroke-miterlimit:4;stroke-dasharray:none;stroke-opacity:1"
         id="path5658"
         inkscape:connector-curvature="0" />
    </g>
    <text
       xml:space="preserve"
       style="font-style:normal;font-variant:normal;font-weight:normal;font-stretch:normal;font-size:151.59999084px;line-height:125%;font-family:'Droid Sans';-inkscape-font-specification:'Droid Sans, Normal';text-align:start;letter-spacing:0px;word-spacing:0px;writing-mode:lr-tb;text-anchor:start;fill:#ff0000;fill-opacity:1;stroke:#550000;stroke-width:2.50000022;stroke-linecap:butt;stroke-linejoin:round;stroke-opacity:1;stroke-miterlimit:4;stroke-dasharray:none;"
       x="105.09922"
       y="363.60458"
       id="0error"
       sodipodi:linespacing="125%"
       transform="scale(1.0032264,0.99678398)"
       inkscape:label="#text3394"><tspan
         sodipodi:role="line"
         id="tspan3396"
         x="105.09922"
         y="363.60458">✘</tspan></text>
    <path
       inkscape:connector-curvature="0"
       id="0n0"
       style="font-style:normal;font-variant:normal;font-weight:bold;font-stretch:normal;font-size:27.5px;line-height:125%;font-family:Sans;-inkscape-font-specification:'Sans, Bold';text-align:start;letter-spacing:0px;word-spacing:0px;writing-mode:lr-tb;text-anchor:start;fill:#ffffff;fill-opacity:1;stroke:#000000;stroke-width:1.75000016;stroke-linecap:butt;stroke-linejoin:round;stroke-miterlimit:4;stroke-dasharray:none;stroke-opacity:1"
       d="m 404.02266,260.24844 q 0,-3.75976 -0.71167,-5.29052 -0.69825,-1.54419 -2.36328,-1.54419 -1.66504,0 -2.37671,1.54419 -0.71167,1.53076 -0.71167,5.29052 0,3.80005 0.71167,5.35767 0.71167,1.55762 2.37671,1.55762 1.65161,0 2.36328,-1.55762 0.71167,-1.55762 0.71167,-5.35767 z m 5.16967,0.0403 q 0,4.98169 -2.14843,7.69409 -2.14844,2.69897 -6.09619,2.69897 -3.96119,0 -6.10962,-2.69897 -2.14844,-2.7124 -2.14844,-7.69409 0,-4.99512 2.14844,-7.69409 2.14843,-2.71241 6.10962,-2.71241 3.94775,0 6.09619,2.71241 2.14843,2.69897 2.14843,7.69409 z"
       inkscape:label="#path4209" />
    <path
       inkscape:connector-curvature="0"
       id="0n1"
       style="font-style:normal;font-variant:normal;font-weight:bold;font-stretch:normal;font-size:27.5px;line-height:125%;font-family:Sans;-inkscape-font-specification:'Sans, Bold';text-align:start;letter-spacing:0px;word-spacing:0px;writing-mode:lr-tb;text-anchor:start;fill:#ffffff;fill-opacity:1;stroke:#000000;stroke-width:1.75000016;stroke-linecap:butt;stroke-linejoin:round;stroke-miterlimit:4;stroke-dasharray:none;stroke-opacity:1"
       d="m 415.63426,266.72061 4.56543,0 0,-12.95776 -4.68628,0.96679 0,-3.51806 4.65942,-0.9668 4.91456,0 0,16.47583 4.56543,0 0,3.57178 -14.01856,0 0,-3.57178 z"
       inkscape:label="#path4211" />
    <path
       inkscape:connector-curvature="0"
       id="0n2"
       style="font-style:normal;font-variant:normal;font-weight:bold;font-stretch:normal;font-size:27.5px;line-height:125%;font-family:Sans;-inkscape-font-specification:'Sans, Bold';text-align:start;letter-spacing:0px;word-spacing:0px;writing-mode:lr-tb;text-anchor:start;fill:#ffffff;fill-opacity:1;stroke:#000000;stroke-width:1.75000016;stroke-linecap:butt;stroke-linejoin:round;stroke-miterlimit:4;stroke-dasharray:none;stroke-opacity:1"
       d="m 442.68776,266.49234 8.82202,0 0,3.80005 -14.56909,0 0,-3.80005 7.31812,-6.45874 q 0.98022,-0.88623 1.45019,-1.73218 0.46997,-0.84595 0.46997,-1.75903 0,-1.40991 -0.95337,-2.26929 -0.93994,-0.85937 -2.51098,-0.85937 -1.2085,0 -2.64527,0.52368 -1.43676,0.51025 -3.07495,1.53076 l 0,-4.4043 q 1.74561,-0.57739 3.45093,-0.8728 1.70532,-0.30884 3.34351,-0.30884 3.59863,0 5.58593,1.58448 2.00074,1.58447 2.00074,4.41772 0,1.63818 -0.84595,3.06152 -0.84595,1.40992 -3.55835,3.78662 l -4.28345,3.75977 z"
       inkscape:label="#path4213" />
    <path
       inkscape:connector-curvature="0"
       id="0n3"
       style="font-style:normal;font-variant:normal;font-weight:bold;font-stretch:normal;font-size:27.5px;line-height:125%;font-family:Sans;-inkscape-font-specification:'Sans, Bold';text-align:start;letter-spacing:0px;word-spacing:0px;writing-mode:lr-tb;text-anchor:start;fill:#ffffff;fill-opacity:1;stroke:#000000;stroke-width:1.75000016;stroke-linecap:butt;stroke-linejoin:round;stroke-miterlimit:4;stroke-dasharray:none;stroke-opacity:1"
       d="m 469.28474,259.48306 q 2.02759,0.52368 3.07495,1.82617 1.06079,1.28907 1.06079,3.2898 0,2.98096 -2.28271,4.53857 -2.28272,1.54419 -6.66016,1.54419 -1.54419,0 -3.10181,-0.25512 -1.54418,-0.2417 -3.06152,-0.73853 l 0,-3.98804 q 1.4502,0.7251 2.87354,1.10108 1.43676,0.36255 2.81982,0.36255 2.05444,0 3.14209,-0.71167 1.10107,-0.71167 1.10107,-2.04102 0,-1.36963 -1.12792,-2.06787 -1.11451,-0.71167 -3.30323,-0.71167 l -2.06787,0 0,-3.33008 2.17529,0 q 1.94703,0 2.90039,-0.60425 0.95337,-0.61767 0.95337,-1.86645 0,-1.15479 -0.92651,-1.78589 -0.92651,-0.6311 -2.61841,-0.6311 -1.24878,0 -2.52441,0.28198 -1.27564,0.28198 -2.53784,0.83252 l 0,-3.78662 q 1.53076,-0.42969 3.03466,-0.64453 1.50391,-0.21485 2.95411,-0.21485 3.90747,0 5.84106,1.28907 1.94702,1.27563 1.94702,3.85375 0,1.75904 -0.92651,2.88697 -0.92652,1.1145 -2.73926,1.57104 z"
       inkscape:label="#path4215" />
    <path
       inkscape:connector-curvature="0"
       id="0n4"
       style="font-style:normal;font-variant:normal;font-weight:bold;font-stretch:normal;font-size:27.5px;line-height:125%;font-family:Sans;-inkscape-font-specification:'Sans, Bold';text-align:start;letter-spacing:0px;word-spacing:0px;writing-mode:lr-tb;text-anchor:start;fill:#ffffff;fill-opacity:1;stroke:#000000;stroke-width:1.75000016;stroke-linecap:butt;stroke-linejoin:round;stroke-miterlimit:4;stroke-dasharray:none;stroke-opacity:1"
       d="m 488.08015,254.50137 -5.66651,8.39234 5.66651,0 0,-8.39234 z m -0.85938,-4.25659 5.74707,0 0,12.64893 2.86011,0 0,3.74634 -2.86011,0 0,3.65234 -4.88769,0 0,-3.65234 -8.88916,0 0,-4.43116 8.02978,-11.96411 z"
       inkscape:label="#path4217" />
    <path
       inkscape:connector-curvature="0"
       id="0n5"
       style="font-style:normal;font-variant:normal;font-weight:bold;font-stretch:normal;font-size:27.5px;line-height:125%;font-family:Sans;-inkscape-font-specification:'Sans, Bold';text-align:start;letter-spacing:0px;word-spacing:0px;writing-mode:lr-tb;text-anchor:start;fill:#ffffff;fill-opacity:1;stroke:#000000;stroke-width:1.75000016;stroke-linecap:butt;stroke-linejoin:round;stroke-miterlimit:4;stroke-dasharray:none;stroke-opacity:1"
       d="m 502.39748,250.24478 12.85034,0 0,3.80005 -8.72803,0 0,3.10181 q 0.59082,-0.16114 1.18164,-0.2417 0.60425,-0.094 1.24878,-0.094 3.66577,0 5.70679,1.8396 2.04101,1.82618 2.04101,5.10254 0,3.24951 -2.229,5.08911 -2.21558,1.8396 -6.16333,1.8396 -1.70532,0 -3.38379,-0.33569 -1.66504,-0.32227 -3.31665,-0.99365 l 0,-4.06861 q 1.63818,0.93995 3.10181,1.40992 1.47705,0.46997 2.77954,0.46997 1.87988,0 2.9541,-0.91309 1.08765,-0.92651 1.08765,-2.49756 0,-1.58447 -1.08765,-2.49756 -1.07422,-0.91308 -2.9541,-0.91308 -1.1145,0 -2.37671,0.29541 -1.26221,0.28198 -2.7124,0.88623 l 0,-11.2793 z"
       inkscape:label="#path4219" />
    <path
       inkscape:connector-curvature="0"
       id="0n6"
       style="font-style:normal;font-variant:normal;font-weight:bold;font-stretch:normal;font-size:27.5px;line-height:125%;font-family:Sans;-inkscape-font-specification:'Sans, Bold';text-align:start;letter-spacing:0px;word-spacing:0px;writing-mode:lr-tb;text-anchor:start;fill:#ffffff;fill-opacity:1;stroke:#000000;stroke-width:1.75000016;stroke-linecap:butt;stroke-linejoin:round;stroke-miterlimit:4;stroke-dasharray:none;stroke-opacity:1"
       d="m 531.06232,260.39615 q -1.3562,0 -2.04101,0.88623 -0.67139,0.8728 -0.67139,2.63184 0,1.75903 0.67139,2.64526 0.68481,0.8728 2.04101,0.8728 1.36963,0 2.04102,-0.8728 0.68481,-0.88623 0.68481,-2.64526 0,-1.75904 -0.68481,-2.63184 -0.67139,-0.88623 -2.04102,-0.88623 z m 6.39161,-9.62769 0,3.70606 q -1.27564,-0.60425 -2.40357,-0.88623 -1.12793,-0.29541 -2.20215,-0.29541 -2.30957,0 -3.59863,1.28906 -1.28906,1.27563 -1.50391,3.80005 0.88623,-0.65796 1.92017,-0.98023 1.03394,-0.33569 2.25586,-0.33569 3.07495,0 4.95483,1.79932 1.89331,1.79931 1.89331,4.71313 0,3.22266 -2.10815,5.16968 -2.10815,1.93359 -5.65308,1.93359 -3.90747,0 -6.0559,-2.63183 -2.13501,-2.64527 -2.13501,-7.49268 0,-4.96826 2.49755,-7.80151 2.51099,-2.84668 6.875,-2.84668 1.38306,0 2.68555,0.21484 1.30249,0.21485 2.57813,0.64453 z"
       inkscape:label="#path4221" />
    <path
       inkscape:connector-curvature="0"
       id="0n7"
       style="font-style:normal;font-variant:normal;font-weight:bold;font-stretch:normal;font-size:27.5px;line-height:125%;font-family:Sans;-inkscape-font-specification:'Sans, Bold';text-align:start;letter-spacing:0px;word-spacing:0px;writing-mode:lr-tb;text-anchor:start;fill:#ffffff;fill-opacity:1;stroke:#000000;stroke-width:1.75000016;stroke-linecap:butt;stroke-linejoin:round;stroke-miterlimit:4;stroke-dasharray:none;stroke-opacity:1"
       d="m 544.88277,250.24478 15.1062,0 0,2.91382 -7.81494,17.13379 -5.0354,0 7.39868,-16.24756 -9.65454,0 0,-3.80005 z"
       inkscape:label="#path4223" />
    <path
       inkscape:connector-curvature="0"
       id="0n8"
       style="font-style:normal;font-variant:normal;font-weight:bold;font-stretch:normal;font-size:27.5px;line-height:125%;font-family:Sans;-inkscape-font-specification:'Sans, Bold';text-align:start;letter-spacing:0px;word-spacing:0px;writing-mode:lr-tb;text-anchor:start;fill:#ffffff;fill-opacity:1;stroke:#000000;stroke-width:1.75000016;stroke-linecap:butt;stroke-linejoin:round;stroke-miterlimit:4;stroke-dasharray:none;stroke-opacity:1"
       d="m 574.0981,261.32266 q -1.4502,0 -2.22901,0.79224 -0.77881,0.79224 -0.77881,2.26929 0,1.47705 0.77881,2.26928 0.77881,0.77881 2.22901,0.77881 1.43676,0 2.20214,-0.77881 0.76538,-0.79223 0.76538,-2.26928 0,-1.49048 -0.76538,-2.26929 -0.76538,-0.79224 -2.20214,-0.79224 z m -3.7732,-1.70532 q -1.82617,-0.55054 -2.75268,-1.69189 -0.92652,-1.14136 -0.92652,-2.84668 0,-2.53785 1.89331,-3.86719 1.89331,-1.32935 5.55909,-1.32935 3.63891,0 5.53222,1.32935 1.89331,1.31592 1.89331,3.86719 0,1.70532 -0.93994,2.84668 -0.92651,1.14135 -2.75268,1.69189 2.04101,0.56396 3.07495,1.8396 1.04736,1.26221 1.04736,3.1958 0,2.98096 -1.9873,4.51172 -1.97388,1.51733 -5.86792,1.51733 -3.90748,0 -5.90821,-1.51733 -1.9873,-1.53076 -1.9873,-4.51172 0,-1.93359 1.03393,-3.1958 1.04737,-1.27564 3.08838,-1.8396 z m 1.2085,-4.01489 q 0,1.19507 0.65796,1.8396 0.67138,0.64453 1.90674,0.64453 1.20849,0 1.86645,-0.64453 0.65796,-0.64453 0.65796,-1.8396 0,-1.19507 -0.65796,-1.82617 -0.65796,-0.64454 -1.86645,-0.64454 -1.23536,0 -1.90674,0.64454 -0.65796,0.64453 -0.65796,1.82617 z"
       inkscape:label="#path4225" />
    <path
       inkscape:connector-curvature="0"
       id="0n9"
       style="font-style:normal;font-variant:normal;font-weight:bold;font-stretch:normal;font-size:27.5px;line-height:125%;font-family:Sans;-inkscape-font-specification:'Sans, Bold';text-align:start;letter-spacing:0px;word-spacing:0px;writing-mode:lr-tb;text-anchor:start;fill:#ffffff;fill-opacity:1;stroke:#000000;stroke-width:1.75000016;stroke-linecap:butt;stroke-linejoin:round;stroke-miterlimit:4;stroke-dasharray:none;stroke-opacity:1"
       d="m 589.0734,269.84927 0,-3.70605 q 1.23535,0.57739 2.36328,0.8728 1.12793,0.28198 2.229,0.28198 2.30958,0 3.59864,-1.27563 1.28906,-1.28906 1.51733,-3.81348 -0.91308,0.67139 -1.94702,1.00708 -1.03394,0.3357 -2.24243,0.3357 -3.07495,0 -4.96826,-1.78589 -1.87989,-1.79932 -1.87989,-4.72656 0,-3.23609 2.09473,-5.18311 2.10815,-1.94702 5.63965,-1.94702 3.9209,0 6.06934,2.64526 2.14843,2.64527 2.14843,7.47925 0,4.96826 -2.51098,7.81494 -2.51099,2.83325 -6.88843,2.83325 -1.40991,0 -2.69898,-0.21484 -1.28906,-0.20142 -2.52441,-0.61768 z m 6.37817,-9.65454 q 1.3562,0 2.04102,-0.8728 0.68481,-0.88623 0.68481,-2.64526 0,-1.74561 -0.68481,-2.63184 -0.68482,-0.88623 -2.04102,-0.88623 -1.3562,0 -2.04101,0.88623 -0.68482,0.88623 -0.68482,2.63184 0,1.75903 0.68482,2.64526 0.68481,0.8728 2.04101,0.8728 z"
       inkscape:label="#path4227" />
    <text
       xml:space="preserve"
       style="font-style:normal;font-weight:normal;font-size:31.96330261px;line-height:125%;font-family:Sans;letter-spacing:0px;word-spacing:0px;fill:#ffffff;fill-opacity:1;stroke:#000000;stroke-width:1.75000012;stroke-linecap:butt;stroke-linejoin:round;stroke-miterlimit:4;stroke-dasharray:none;stroke-opacity:1"
       x="274.35486"
       y="-433.2915"
       id="0reload"
       sodipodi:linespacing="125%"
       inkscape:label="#text4239"
       transform="matrix(-0.00170809,1.0146722,-0.98553716,-0.00165905,0,0)"><tspan
         sodipodi:role="line"
         id="tspan4241"
         x="274.35486"
         y="-433.2915"
         style="stroke-width:1.75000012;stroke-miterlimit:4;stroke-dasharray:none">↻</tspan></text>
  </g>
</svg>
