<?xml version="1.0" encoding="UTF-8" standalone="no"?>
<!-- Created with Inkscape (http://www.inkscape.org/) -->

<svg
   xmlns:dc="http://purl.org/dc/elements/1.1/"
   xmlns:cc="http://creativecommons.org/ns#"
   xmlns:rdf="http://www.w3.org/1999/02/22-rdf-syntax-ns#"
   xmlns:svg="http://www.w3.org/2000/svg"
   xmlns="http://www.w3.org/2000/svg"
   xmlns:sodipodi="http://sodipodi.sourceforge.net/DTD/sodipodi-0.dtd"
   xmlns:inkscape="http://www.inkscape.org/namespaces/inkscape"
   width="43.642509mm"
   height="44.651615mm"
   viewBox="0 0 154.63881 158.21438"
   id="svg6343"
   version="1.1"
   inkscape:version="0.91 r13725"
   sodipodi:docname="icon.svg">
  <defs
     id="defs6345" />
  <sodipodi:namedview
     id="base"
     pagecolor="#ffffff"
     bordercolor="#666666"
     borderopacity="1.0"
     inkscape:pageopacity="0.0"
     inkscape:pageshadow="2"
     inkscape:zoom="2.1542002"
     inkscape:cx="-80.961712"
     inkscape:cy="22.846199"
     inkscape:document-units="px"
     inkscape:current-layer="layer1"
     showgrid="false"
     inkscape:window-width="1920"
     inkscape:window-height="1136"
     inkscape:window-x="1600"
     inkscape:window-y="27"
     inkscape:window-maximized="1"
     fit-margin-top="0"
     fit-margin-left="0"
     fit-margin-right="0"
     fit-margin-bottom="0" />
  <metadata
     id="metadata6348">
    <rdf:RDF>
      <cc:Work
         rdf:about="">
        <dc:format>image/svg+xml</dc:format>
        <dc:type
           rdf:resource="http://purl.org/dc/dcmitype/StillImage" />
        <dc:title></dc:title>
      </cc:Work>
    </rdf:RDF>
  </metadata>
  <g
     inkscape:label="Calque 1"
     inkscape:groupmode="layer"
     id="layer1"
     transform="translate(-113.70362,-86.112208)">
    <g
       transform="translate(9.99238,-85.305267)"
       style="fill:#ff41ff;fill-opacity:1;stroke:#803980;stroke-width:5.00000048;stroke-linejoin:round;stroke-miterlimit:4;stroke-dasharray:none;stroke-opacity:1"
       inkscape:label="#g3356"
       id="0cross">
      <path
         inkscape:connector-curvature="0"
         style="fill:#ff41ff;fill-opacity:1;stroke:#803980;stroke-width:5;stroke-linejoin:round;stroke-miterlimit:4;stroke-dasharray:none;stroke-opacity:1"
         d="m 42.5625,125.5 0,31.25 -31.25,0 0,25 31.25,0 0,31.25 25,0 0,-31.25 31.25,0 0,-25 -31.25,0 0,-31.25 -25,0 z"
         transform="translate(114.94512,48.417475)"
         id="rect3352" />
    </g>
    <path
       transform="matrix(1.138458,0.01858784,-0.01944847,1.1911688,-359.02128,61.200173)"
       inkscape:label="#path3348"
       inkscape:transform-center-y="-4.0794014"
       inkscape:transform-center-x="0.47783259"
       d="m 536.391,131.10309 -47.49475,0.72114 -15.36253,-44.947336 38.00017,-28.500132 38.84794,27.33329 z"
       inkscape:randomized="0"
       inkscape:rounded="0"
       inkscape:flatsided="true"
       sodipodi:arg2="1.5556138"
       sodipodi:arg1="0.92729522"
       sodipodi:r2="32.545895"
       sodipodi:r1="40.406101"
       sodipodi:cy="98.778206"
       sodipodi:cx="512.14734"
       sodipodi:sides="5"
       id="0penta"
       style="fill:#00ffff;fill-opacity:1;stroke:#3a8080;stroke-width:4.2930603;stroke-linejoin:round;stroke-miterlimit:4;stroke-dasharray:none;stroke-opacity:1"
       sodipodi:type="star" />
    <path
       inkscape:label="#path3356"
       inkscape:connector-curvature="0"
       id="0spiral"
       d="m 157.88015,154.33473 c -20.15895,-0.32141 -38.9065,16.76425 -41.19858,37.60291 -3.86937,23.35281 16.7358,47.48676 39.64103,45.31644 12.20102,-0.76865 23.76919,-8.45705 29.03604,-20.00332 6.61043,-13.59525 3.19101,-31.78746 -8.72849,-41.00231 -11.91023,-9.84408 -31.5447,-7.79332 -40.34686,5.46911 -8.25602,11.53909 -5.3078,30.58816 7.47626,37.21364 10.28179,6.05468 25.63854,1.15001 29.0991,-11.11553 3.04684,-9.25632 -2.65279,-21.09349 -12.45674,-22.21563 -7.74971,-1.31975 -16.07358,6.63167 -13.65087,14.90034 1.37551,7.39459 14.12722,8.17257 14.08847,-0.22482 -0.0955,-2.72794 -2.63922,-5.69968 -5.32908,-4.79848 4.38499,-3.96292 10.36557,1.52768 9.81632,6.69218 0.19607,6.907 -6.58875,11.92951 -12.86343,10.71083 -8.21344,-0.99562 -14.24185,-9.85518 -12.49382,-18.25737 1.54211,-10.78621 12.75113,-18.38943 22.89359,-15.65962 11.86257,2.42582 20.00065,15.79672 17.20605,27.99309 -2.41584,13.54418 -15.7679,23.59081 -28.91368,21.59767 -14.20193,-1.45306 -26.32571,-14.644 -26.46485,-29.59643 -0.8484,-17.59211 12.58621,-34.40757 29.59974,-35.87494 17.64776,-2.34404 36.43269,10.56977 40.14043,28.9258 3.86993,15.99133 -2.31691,34.4508 -15.45688,44.18203 -0.10231,3.94543 4.80831,7.62163 7.87431,4.41178 19.69304,-16.79994 22.96064,-50.96148 5.42672,-70.6373 -8.57029,-10.04432 -21.48622,-15.8896 -34.39478,-15.63007 z"
       style="color:#000000;font-style:normal;font-variant:normal;font-weight:normal;font-stretch:normal;font-size:medium;line-height:normal;font-family:sans-serif;text-indent:0;text-align:start;text-decoration:none;text-decoration-line:none;letter-spacing:normal;word-spacing:normal;text-transform:none;direction:ltr;block-progression:tb;writing-mode:lr-tb;baseline-shift:baseline;text-anchor:start;display:inline;overflow:visible;visibility:visible;fill:#ffff00;fill-opacity:1;fill-rule:evenodd;stroke:#808036;stroke-width:5.00000048;stroke-linejoin:round;stroke-miterlimit:4;stroke-dasharray:none;stroke-opacity:1;enable-background:accumulate" />
  </g>
</svg>
